<svg width="24" height="24" viewBox="0 0 24 24" fill="none" xmlns="http://www.w3.org/2000/svg">
<g clip-path="url(#clip0_52_119)">
<path d="M19.5 10.5C18.9578 10.4998 18.42 10.5979 17.9129 10.7897L15.556 6.75H18C18.199 6.75 18.3897 6.82902 18.5304 6.96967C18.671 7.11032 18.75 7.30109 18.75 7.5C18.75 7.69891 18.8291 7.88968 18.9697 8.03033C19.1104 8.17098 19.3011 8.25 19.5 8.25C19.699 8.25 19.8897 8.17098 20.0304 8.03033C20.171 7.88968 20.25 7.69891 20.25 7.5C20.25 6.90326 20.013 6.33097 19.591 5.90901C19.1691 5.48705 18.5968 5.25 18 5.25H14.25C14.1185 5.2503 13.9894 5.28517 13.8756 5.35112C13.7619 5.41707 13.6674 5.51177 13.6018 5.62574C13.5362 5.7397 13.5017 5.86892 13.5017 6.00043C13.5018 6.13193 13.5365 6.26111 13.6022 6.375L14.6944 8.25H9.30567L7.77286 5.625C7.70717 5.51124 7.61276 5.41672 7.49907 5.35091C7.38539 5.2851 7.25641 5.2503 7.12504 5.25H4.50004C4.30113 5.25 4.11036 5.32902 3.96971 5.46967C3.82906 5.61032 3.75004 5.80109 3.75004 6C3.75004 6.19891 3.82906 6.38968 3.96971 6.53033C4.11036 6.67098 4.30113 6.75 4.50004 6.75H6.69473L7.98004 8.95406L6.50723 10.9744C5.49531 10.468 4.33006 10.3603 3.24246 10.6726C2.15486 10.9849 1.22431 11.6945 0.635272 12.6607C0.046235 13.6268 -0.158289 14.779 0.0622433 15.8889C0.282775 16.9987 0.912263 17.9852 1.82593 18.6528C2.73959 19.3204 3.87072 19.6203 4.99511 19.4931C6.1195 19.3659 7.15505 18.8209 7.8965 17.9661C8.63794 17.1113 9.03115 16.0091 8.99818 14.878C8.96521 13.7469 8.50846 12.6695 7.71848 11.8594L8.80504 10.3687L11.7272 15.375C11.7729 15.4667 11.8369 15.5481 11.9152 15.6141C11.9935 15.6802 12.0846 15.7295 12.1827 15.759C12.2808 15.7885 12.3839 15.7975 12.4857 15.7857C12.5874 15.7738 12.6857 15.7411 12.7744 15.6898C12.863 15.6385 12.9402 15.5695 13.0012 15.4872C13.0622 15.4049 13.1057 15.3109 13.129 15.2112C13.1523 15.1114 13.1549 15.0079 13.1366 14.9071C13.1184 14.8063 13.0796 14.7103 13.0229 14.625L10.1804 9.75H15.5691L16.6182 11.5472C15.806 12.226 15.2591 13.1694 15.0736 14.2115C14.8882 15.2537 15.076 16.3278 15.6041 17.2452C16.1322 18.1625 16.9668 18.8643 17.9612 19.2273C18.9555 19.5902 20.046 19.5909 21.0409 19.2294C22.0357 18.8679 22.8713 18.1673 23.4007 17.2507C23.9301 16.3341 24.1195 15.2602 23.9355 14.2178C23.7515 13.1754 23.206 12.2312 22.3947 11.5513C21.5835 10.8713 20.5585 10.4991 19.5 10.5ZM7.50004 15C7.50022 15.6417 7.29465 16.2665 6.91353 16.7827C6.5324 17.2989 5.9958 17.6793 5.38252 17.8681C4.76924 18.0569 4.1116 18.044 3.50616 17.8314C2.90073 17.6188 2.37941 17.2177 2.01875 16.687C1.65809 16.1563 1.47711 15.5239 1.50237 14.8827C1.52763 14.2416 1.7578 13.6254 2.15909 13.1247C2.56039 12.624 3.11165 12.2651 3.73193 12.1008C4.35221 11.9365 5.00882 11.9755 5.60536 12.2119L3.89442 14.5556C3.83213 14.6349 3.78644 14.7258 3.76009 14.8231C3.73374 14.9204 3.72727 15.022 3.74106 15.1218C3.75485 15.2216 3.78862 15.3177 3.84035 15.4042C3.89208 15.4907 3.96072 15.5658 4.04215 15.6252C4.12359 15.6846 4.21616 15.7269 4.31433 15.7497C4.41249 15.7725 4.51425 15.7753 4.61352 15.7579C4.71279 15.7405 4.80753 15.7033 4.89209 15.6484C4.97665 15.5936 5.04929 15.5223 5.10567 15.4387L6.8166 13.095C7.25903 13.6312 7.50071 14.3048 7.50004 15ZM19.5 18C18.9058 17.9995 18.3252 17.8227 17.8316 17.4917C17.3381 17.1608 16.954 16.6908 16.7279 16.1413C16.5019 15.5918 16.4441 14.9875 16.5619 14.4051C16.6797 13.8227 16.9679 13.2884 17.3897 12.87L18.8522 15.375C18.8979 15.4667 18.9619 15.5481 19.0402 15.6141C19.1185 15.6802 19.2096 15.7295 19.3077 15.759C19.4058 15.7885 19.5089 15.7975 19.6107 15.7857C19.7124 15.7738 19.8107 15.7411 19.8994 15.6898C19.988 15.6385 20.0652 15.5695 20.1262 15.4872C20.1872 15.4049 20.2307 15.3109 20.254 15.2112C20.2773 15.1114 20.2799 15.0079 20.2616 14.9071C20.2434 14.8063 20.2046 14.7103 20.1479 14.625L18.6844 12.1134C19.0971 11.9966 19.53 11.9696 19.954 12.0343C20.3779 12.099 20.7831 12.2538 21.1422 12.4883C21.5013 12.7229 21.8059 13.0317 22.0355 13.3939C22.2651 13.7562 22.4143 14.1634 22.4732 14.5883C22.5321 15.0131 22.4991 15.4456 22.3767 15.8566C22.2542 16.2676 22.0451 16.6476 21.7633 16.971C21.4815 17.2943 21.1337 17.5535 20.7433 17.731C20.3529 17.9085 19.9289 18.0002 19.5 18Z" fill="black"/>
</g>
<defs>
<clipPath id="clip0_52_119">
<rect width="24" height="24" fill="white"/>
</clipPath>
</defs>
</svg>
