<svg width="24" height="24" viewBox="0 0 24 24" fill="none" xmlns="http://www.w3.org/2000/svg">
<path d="M17.25 3H6.75C5.95435 3 5.19129 3.31607 4.62868 3.87868C4.06607 4.44129 3.75 5.20435 3.75 6V19.5C3.75 19.8978 3.90804 20.2794 4.18934 20.5607C4.47064 20.842 4.85218 21 5.25 21H7.5C7.89782 21 8.27936 20.842 8.56066 20.5607C8.84196 20.2794 9 19.8978 9 19.5V18H15V19.5C15 19.8978 15.158 20.2794 15.4393 20.5607C15.7206 20.842 16.1022 21 16.5 21H18.75C19.1478 21 19.5294 20.842 19.8107 20.5607C20.092 20.2794 20.25 19.8978 20.25 19.5V6C20.25 5.20435 19.9339 4.44129 19.3713 3.87868C18.8087 3.31607 18.0456 3 17.25 3ZM5.25 16.5V11.25H18.75V16.5H5.25ZM5.25 7.5H18.75V9.75H5.25V7.5ZM6.75 4.5H17.25C17.6478 4.5 18.0294 4.65804 18.3107 4.93934C18.592 5.22064 18.75 5.60218 18.75 6H5.25C5.25 5.60218 5.40804 5.22064 5.68934 4.93934C5.97064 4.65804 6.35218 4.5 6.75 4.5ZM7.5 19.5H5.25V18H7.5V19.5ZM16.5 19.5V18H18.75V19.5H16.5ZM9.75 13.875C9.75 14.0975 9.68402 14.315 9.5604 14.5C9.43679 14.685 9.26109 14.8292 9.05552 14.9144C8.84995 14.9995 8.62375 15.0218 8.40552 14.9784C8.18729 14.935 7.98684 14.8278 7.8295 14.6705C7.67217 14.5132 7.56502 14.3127 7.52162 14.0945C7.47821 13.8762 7.50049 13.65 7.58564 13.4445C7.67078 13.2389 7.81498 13.0632 7.99998 12.9396C8.18499 12.816 8.4025 12.75 8.625 12.75C8.92337 12.75 9.20952 12.8685 9.4205 13.0795C9.63147 13.2905 9.75 13.5766 9.75 13.875ZM16.5 13.875C16.5 14.0975 16.434 14.315 16.3104 14.5C16.1868 14.685 16.0111 14.8292 15.8055 14.9144C15.6 14.9995 15.3738 15.0218 15.1555 14.9784C14.9373 14.935 14.7368 14.8278 14.5795 14.6705C14.4222 14.5132 14.315 14.3127 14.2716 14.0945C14.2282 13.8762 14.2505 13.65 14.3356 13.4445C14.4208 13.2389 14.565 13.0632 14.75 12.9396C14.935 12.816 15.1525 12.75 15.375 12.75C15.6734 12.75 15.9595 12.8685 16.1705 13.0795C16.3815 13.2905 16.5 13.5766 16.5 13.875ZM23.25 7.5V9.75C23.25 9.94891 23.171 10.1397 23.0303 10.2803C22.8897 10.421 22.6989 10.5 22.5 10.5C22.3011 10.5 22.1103 10.421 21.9697 10.2803C21.829 10.1397 21.75 9.94891 21.75 9.75V7.5C21.75 7.30109 21.829 7.11032 21.9697 6.96967C22.1103 6.82902 22.3011 6.75 22.5 6.75C22.6989 6.75 22.8897 6.82902 23.0303 6.96967C23.171 7.11032 23.25 7.30109 23.25 7.5ZM2.25 7.5V9.75C2.25 9.94891 2.17098 10.1397 2.03033 10.2803C1.88968 10.421 1.69891 10.5 1.5 10.5C1.30109 10.5 1.11032 10.421 0.96967 10.2803C0.829018 10.1397 0.75 9.94891 0.75 9.75V7.5C0.75 7.30109 0.829018 7.11032 0.96967 6.96967C1.11032 6.82902 1.30109 6.75 1.5 6.75C1.69891 6.75 1.88968 6.82902 2.03033 6.96967C2.17098 7.11032 2.25 7.30109 2.25 7.5Z" fill="black"/>
</svg>
