<svg width="24" height="24" viewBox="0 0 24 24" fill="none" xmlns="http://www.w3.org/2000/svg">
<path d="M22.2806 4.28063C22.3856 4.17573 22.4571 4.04204 22.4861 3.89648C22.5151 3.75092 22.5003 3.60002 22.4434 3.46291C22.3866 3.32579 22.2904 3.20861 22.167 3.12621C22.0435 3.04381 21.8984 2.99988 21.75 3H2.24998C2.10156 2.99988 1.95644 3.04381 1.83299 3.12621C1.70955 3.20861 1.61333 3.32579 1.55651 3.46291C1.4997 3.60002 1.48485 3.75092 1.51383 3.89648C1.54282 4.04204 1.61435 4.17573 1.71936 4.28063L11.25 13.8103V19.5H8.24998C8.05107 19.5 7.8603 19.579 7.71965 19.7197C7.579 19.8603 7.49998 20.0511 7.49998 20.25C7.49998 20.4489 7.579 20.6397 7.71965 20.7803C7.8603 20.921 8.05107 21 8.24998 21H15.75C15.9489 21 16.1397 20.921 16.2803 20.7803C16.421 20.6397 16.5 20.4489 16.5 20.25C16.5 20.0511 16.421 19.8603 16.2803 19.7197C16.1397 19.579 15.9489 19.5 15.75 19.5H12.75V13.8103L22.2806 4.28063ZM4.06029 4.5H19.9397L18.4397 6H5.56029L4.06029 4.5ZM12 12.4397L7.06029 7.5H16.9397L12 12.4397Z" fill="black"/>
</svg>
