<svg width="24" height="24" viewBox="0 0 24 24" fill="none" xmlns="http://www.w3.org/2000/svg">
<path d="M21.0001 12.0001C21.0001 12.199 20.921 12.3897 20.7804 12.5304C20.6397 12.671 20.449 12.7501 20.2501 12.7501H12.0001C11.8011 12.7501 11.6104 12.671 11.4697 12.5304C11.3291 12.3897 11.2501 12.199 11.2501 12.0001C11.2501 11.8011 11.3291 11.6104 11.4697 11.4697C11.6104 11.3291 11.8011 11.2501 12.0001 11.2501H20.2501C20.449 11.2501 20.6397 11.3291 20.7804 11.4697C20.921 11.6104 21.0001 11.8011 21.0001 12.0001ZM12.0001 6.75005H20.2501C20.449 6.75005 20.6397 6.67103 20.7804 6.53038C20.921 6.38973 21.0001 6.19896 21.0001 6.00005C21.0001 5.80114 20.921 5.61037 20.7804 5.46972C20.6397 5.32907 20.449 5.25005 20.2501 5.25005H12.0001C11.8011 5.25005 11.6104 5.32907 11.4697 5.46972C11.3291 5.61037 11.2501 5.80114 11.2501 6.00005C11.2501 6.19896 11.3291 6.38973 11.4697 6.53038C11.6104 6.67103 11.8011 6.75005 12.0001 6.75005ZM20.2501 17.2501H12.0001C11.8011 17.2501 11.6104 17.3291 11.4697 17.4697C11.3291 17.6104 11.2501 17.8011 11.2501 18.0001C11.2501 18.199 11.3291 18.3897 11.4697 18.5304C11.6104 18.671 11.8011 18.7501 12.0001 18.7501H20.2501C20.449 18.7501 20.6397 18.671 20.7804 18.5304C20.921 18.3897 21.0001 18.199 21.0001 18.0001C21.0001 17.8011 20.921 17.6104 20.7804 17.4697C20.6397 17.3291 20.449 17.2501 20.2501 17.2501ZM7.71943 3.96943L5.25005 6.43974L4.28068 5.46943C4.13995 5.3287 3.94907 5.24963 3.75005 5.24963C3.55103 5.24963 3.36016 5.3287 3.21943 5.46943C3.0787 5.61016 2.99963 5.80103 2.99963 6.00005C2.99963 6.19907 3.0787 6.38995 3.21943 6.53068L4.71943 8.03068C4.78908 8.10041 4.8718 8.15573 4.96285 8.19347C5.05389 8.23121 5.15149 8.25064 5.25005 8.25064C5.34861 8.25064 5.44621 8.23121 5.53726 8.19347C5.6283 8.15573 5.71102 8.10041 5.78068 8.03068L8.78068 5.03068C8.92141 4.88995 9.00047 4.69907 9.00047 4.50005C9.00047 4.30103 8.92141 4.11016 8.78068 3.96943C8.63995 3.8287 8.44907 3.74963 8.25005 3.74963C8.05103 3.74963 7.86016 3.8287 7.71943 3.96943ZM7.71943 9.96943L5.25005 12.4397L4.28068 11.4694C4.13995 11.3287 3.94907 11.2496 3.75005 11.2496C3.55103 11.2496 3.36016 11.3287 3.21943 11.4694C3.0787 11.6102 2.99963 11.801 2.99963 12.0001C2.99963 12.0986 3.01904 12.1962 3.05676 12.2872C3.09447 12.3783 3.14974 12.461 3.21943 12.5307L4.71943 14.0307C4.78908 14.1004 4.8718 14.1557 4.96285 14.1935C5.05389 14.2312 5.15149 14.2506 5.25005 14.2506C5.34861 14.2506 5.44621 14.2312 5.53726 14.1935C5.6283 14.1557 5.71102 14.1004 5.78068 14.0307L8.78068 11.0307C8.92141 10.8899 9.00047 10.6991 9.00047 10.5001C9.00047 10.301 8.92141 10.1102 8.78068 9.96943C8.63995 9.82869 8.44907 9.74963 8.25005 9.74963C8.05103 9.74963 7.86016 9.82869 7.71943 9.96943ZM7.71943 15.9694L5.25005 18.4397L4.28068 17.4694C4.21099 17.3997 4.12827 17.3445 4.03722 17.3068C3.94618 17.269 3.8486 17.2496 3.75005 17.2496C3.6515 17.2496 3.55392 17.269 3.46288 17.3068C3.37183 17.3445 3.28911 17.3997 3.21943 17.4694C3.14974 17.5391 3.09447 17.6218 3.05676 17.7129C3.01904 17.8039 2.99963 17.9015 2.99963 18.0001C2.99963 18.0986 3.01904 18.1962 3.05676 18.2872C3.09447 18.3783 3.14974 18.461 3.21943 18.5307L4.71943 20.0307C4.78908 20.1004 4.8718 20.1557 4.96285 20.1935C5.05389 20.2312 5.15149 20.2506 5.25005 20.2506C5.34861 20.2506 5.44621 20.2312 5.53726 20.1935C5.6283 20.1557 5.71102 20.1004 5.78068 20.0307L8.78068 17.0307C8.92141 16.8899 9.00047 16.6991 9.00047 16.5001C9.00047 16.301 8.92141 16.1102 8.78068 15.9694C8.63995 15.8287 8.44907 15.7496 8.25005 15.7496C8.05103 15.7496 7.86016 15.8287 7.71943 15.9694Z" fill="black"/>
</svg>
