<svg width="24" height="24" viewBox="0 0 24 24" fill="none" xmlns="http://www.w3.org/2000/svg">
<path d="M23.0465 11.4028C22.9509 11.2347 22.8227 11.0874 22.6694 10.9694C22.5162 10.8514 22.341 10.7651 22.154 10.7156C21.4758 10.541 20.775 10.4709 20.0756 10.5075C20.4506 8.64656 20.1694 7.17469 19.8825 6.30188C19.7681 5.94334 19.5244 5.64024 19.1987 5.45167C18.873 5.2631 18.4888 5.20256 18.1209 5.28188C17.1669 5.49434 16.2598 5.87942 15.4444 6.41812C14.8471 5.1981 13.9776 4.13161 12.9028 3.30094C12.6423 3.1056 12.3255 3 12 3C11.6744 3 11.3576 3.1056 11.0972 3.30094C10.0222 4.13136 9.15255 5.19792 8.5556 6.41812C7.74012 5.87942 6.83302 5.49434 5.87904 5.28188C5.51117 5.20256 5.12694 5.2631 4.80127 5.45167C4.4756 5.64024 4.23183 5.94334 4.11748 6.30188C3.83623 7.17469 3.55498 8.64563 3.92435 10.5075C3.22499 10.4709 2.52413 10.541 1.84592 10.7156C1.65897 10.7651 1.48376 10.8514 1.33052 10.9694C1.17728 11.0874 1.04908 11.2347 0.953417 11.4028C0.853297 11.575 0.788469 11.7654 0.762715 11.9629C0.736961 12.1604 0.750797 12.361 0.803417 12.5531C1.12123 13.7316 2.09717 15.9731 5.0531 17.7394C8.00904 19.5056 10.6059 19.5 12.0047 19.5C13.4034 19.5 16.005 19.5 18.9422 17.7394C21.8981 15.9731 22.874 13.7316 23.1919 12.5531C23.2452 12.3613 23.2598 12.1609 23.2348 11.9634C23.2099 11.7659 23.1459 11.5753 23.0465 11.4028ZM5.54435 6.76312C5.54547 6.75847 5.54833 6.75442 5.55234 6.75181C5.55635 6.74919 5.56121 6.74821 5.56592 6.74906C6.43825 6.94612 7.26146 7.31833 7.9856 7.84313C7.65588 8.92177 7.49213 10.0443 7.49998 11.1722C7.49998 12.9291 7.85342 14.3597 8.35404 15.5109C7.64233 14.7986 7.02652 13.9965 6.52217 13.125C4.83279 10.1831 5.18435 7.875 5.54435 6.76312ZM5.8256 16.4522C3.32529 14.9597 2.51435 13.1297 2.24998 12.1594C2.93981 11.9895 3.65563 11.9523 4.35935 12.0497C4.59429 12.679 4.88122 13.2877 5.21717 13.8694C6.04203 15.2915 7.12269 16.5489 8.40467 17.5781C7.49815 17.3175 6.62979 16.9389 5.82185 16.4522H5.8256ZM12 17.85C11.1253 17.1994 8.99998 15.2034 8.99998 11.1722C8.99998 7.19062 11.0981 5.17875 12 4.5C12.9019 5.18063 15 7.1925 15 11.1741C15 15.2034 12.8747 17.1994 12 17.85ZM16.0144 7.84313C16.7386 7.31867 17.5618 6.94677 18.434 6.75C18.4388 6.74915 18.4436 6.75013 18.4476 6.75275C18.4516 6.75536 18.4545 6.75941 18.4556 6.76406C18.8156 7.875 19.1672 10.1831 17.4778 13.125C16.9739 13.9977 16.358 14.8007 15.6459 15.5137C16.1465 14.3644 16.5 12.9319 16.5 11.175C16.5081 10.0462 16.3444 8.92267 16.0144 7.84313ZM21.75 12.1613C21.4903 13.1222 20.6812 14.9559 18.179 16.4522C17.3711 16.9386 16.5027 17.3169 15.5962 17.5772C16.8782 16.5479 17.9589 15.2906 18.7837 13.8684C19.1197 13.2867 19.4066 12.6781 19.6415 12.0488C20.3451 11.9518 21.0606 11.9897 21.75 12.1603V12.1613Z" fill="black"/>
</svg>
