<svg width="26" height="26" class="svg-ticket-alt" viewBox="0 0 26 26" fill="none" xmlns="http://www.w3.org/2000/svg">
<path fill-rule="evenodd" clip-rule="evenodd" d="M23.5625 11.375C24.0112 11.375 24.375 11.0112 24.375 10.5625V6.5C24.375 5.60254 23.6475 4.875 22.75 4.875H3.25C2.35254 4.875 1.625 5.60254 1.625 6.5V10.5625C1.625 11.0112 1.98877 11.375 2.4375 11.375C3.33496 11.375 4.0625 12.1025 4.0625 13C4.0625 13.8975 3.33496 14.625 2.4375 14.625C1.98877 14.625 1.625 14.9888 1.625 15.4375V19.5C1.625 20.3975 2.35254 21.125 3.25 21.125H22.75C23.6475 21.125 24.375 20.3975 24.375 19.5V15.4375C24.375 14.9888 24.0112 14.625 23.5625 14.625C22.665 14.625 21.9375 13.8975 21.9375 13C21.9375 12.1025 22.665 11.375 23.5625 11.375ZM22.75 16.1444V19.5H17.0625V17.0625H15.4375V19.5H3.25V16.1444C4.68036 15.7705 5.67817 14.4784 5.67817 13C5.67817 11.5216 4.68036 10.2295 3.25 9.85563V6.5H15.4375V8.9375H17.0625V6.5H22.75V9.85563C21.3196 10.2295 20.3218 11.5216 20.3218 13C20.3218 14.4784 21.3196 15.7705 22.75 16.1444ZM16.25 11.375H14.625V14.625H16.25V11.375Z" fill="white"/>
</svg>
