<svg width="24" height="24" viewBox="0 0 24 24" fill="none" xmlns="http://www.w3.org/2000/svg">
<path d="M6.75001 8.25002V3.75002C6.75001 3.55111 6.82902 3.36034 6.96968 3.21969C7.11033 3.07904 7.30109 3.00002 7.50001 3.00002C7.69892 3.00002 7.88968 3.07904 8.03034 3.21969C8.17099 3.36034 8.25001 3.55111 8.25001 3.75002V8.25002C8.25001 8.44894 8.17099 8.6397 8.03034 8.78035C7.88968 8.92101 7.69892 9.00002 7.50001 9.00002C7.30109 9.00002 7.11033 8.92101 6.96968 8.78035C6.82902 8.6397 6.75001 8.44894 6.75001 8.25002ZM20.25 3.75002V21C20.25 21.1989 20.171 21.3897 20.0303 21.5304C19.8897 21.671 19.6989 21.75 19.5 21.75C19.3011 21.75 19.1103 21.671 18.9697 21.5304C18.829 21.3897 18.75 21.1989 18.75 21V16.5H14.25C14.0511 16.5 13.8603 16.421 13.7197 16.2804C13.579 16.1397 13.5 15.9489 13.5 15.75C13.5348 13.9535 13.7618 12.1658 14.1769 10.4175C15.0938 6.62159 16.8319 4.07721 19.2047 3.06096C19.3187 3.01211 19.4431 2.99231 19.5667 3.00334C19.6903 3.01438 19.8092 3.0559 19.9128 3.12418C20.0164 3.19247 20.1014 3.28539 20.1603 3.39461C20.2191 3.50383 20.2499 3.62595 20.25 3.75002ZM18.75 5.05315C15.7341 7.35659 15.1434 12.9675 15.0281 15H18.75V5.05315ZM11.2397 3.62721C11.225 3.52873 11.1909 3.43416 11.1392 3.34902C11.0876 3.26387 11.0196 3.18986 10.939 3.1313C10.8585 3.07274 10.7671 3.03079 10.6702 3.00792C10.5733 2.98504 10.4728 2.98169 10.3746 2.99806C10.2764 3.01443 10.1824 3.05019 10.0982 3.10326C10.0139 3.15633 9.94108 3.22564 9.8839 3.30715C9.82672 3.38867 9.78634 3.48075 9.76513 3.57804C9.74391 3.67532 9.74228 3.77585 9.76032 3.87377L10.5 8.30909C10.5 9.10473 10.1839 9.8678 9.62133 10.4304C9.05872 10.993 8.29566 11.3091 7.50001 11.3091C6.70436 11.3091 5.9413 10.993 5.37869 10.4304C4.81608 9.8678 4.50001 9.10473 4.50001 8.30909L5.23876 3.87377C5.2568 3.77585 5.25517 3.67532 5.23395 3.57804C5.21273 3.48075 5.17236 3.38867 5.11518 3.30715C5.058 3.22564 4.98516 3.15633 4.90091 3.10326C4.81666 3.05019 4.72269 3.01443 4.62448 2.99806C4.52626 2.98169 4.42577 2.98504 4.32886 3.00792C4.23196 3.03079 4.14058 3.07274 4.06005 3.1313C3.97952 3.18986 3.91147 3.26387 3.85984 3.34902C3.80822 3.43416 3.77407 3.52873 3.75938 3.62721L3.00938 8.12721C3.00297 8.16783 2.99983 8.2089 3.00001 8.25002C3.00151 9.31297 3.37868 10.3412 4.06488 11.153C4.75109 11.9647 5.70215 12.5078 6.75001 12.6863V21C6.75001 21.1989 6.82902 21.3897 6.96968 21.5304C7.11033 21.671 7.30109 21.75 7.50001 21.75C7.69892 21.75 7.88968 21.671 8.03034 21.5304C8.17099 21.3897 8.25001 21.1989 8.25001 21V12.6863C9.29787 12.5078 10.2489 11.9647 10.9351 11.153C11.6213 10.3412 11.9985 9.31297 12 8.25002C11.9999 8.20888 11.9964 8.1678 11.9897 8.12721L11.2397 3.62721Z" fill="black"/>
</svg>
