<svg width="16" height="16" viewBox="0 0 16 16" fill="none" xmlns="http://www.w3.org/2000/svg">
    <path
        d="M7.64597 11.354L2.64597 6.35403C2.59952 6.30757 2.56267 6.25242 2.53753 6.19173C2.51238 6.13103 2.49944 6.06597 2.49944 6.00028C2.49944 5.93458 2.51238 5.86953 2.53753 5.80883C2.56267 5.74813 2.59952 5.69298 2.64597 5.64653C2.69243 5.60007 2.74758 5.56322 2.80827 5.53808C2.86897 5.51294 2.93402 5.5 2.99972 5.5C3.06542 5.5 3.13047 5.51294 3.19117 5.53808C3.25187 5.56322 3.30702 5.60007 3.35347 5.64653L7.99972 10.2934L12.646 5.64653C12.7398 5.55271 12.867 5.5 12.9997 5.5C13.1324 5.5 13.2597 5.55271 13.3535 5.64653C13.4473 5.74035 13.5 5.8676 13.5 6.00028C13.5 6.13296 13.4473 6.26021 13.3535 6.35403L8.35347 11.354C8.30704 11.4005 8.25189 11.4374 8.19119 11.4626C8.13049 11.4877 8.06543 11.5007 7.99972 11.5007C7.93401 11.5007 7.86895 11.4877 7.80825 11.4626C7.74755 11.4374 7.69241 11.4005 7.64597 11.354Z"
        fill="#111111" />
</svg>