<svg width="20" height="20" viewBox="0 0 20 20" fill="none" xmlns="http://www.w3.org/2000/svg">
<g id="Grupo 445">
<path id="Trazado 12491" d="M13.0299 13.9989H4.63705C4.37191 13.9989 4.11761 13.8937 3.93004 13.7063C3.74247 13.5189 3.63697 13.2647 3.63672 12.9996V4.99973C3.63672 4.73443 3.74211 4.47999 3.92971 4.29239C4.11731 4.10479 4.37175 3.9994 4.63705 3.9994H17.6028C17.9343 3.99831 18.2611 4.07805 18.5548 4.23171C18.8485 4.38537 19.1004 4.60833 19.2885 4.88127C19.4704 5.14594 19.585 5.45099 19.6224 5.76997C19.6597 6.08895 19.6187 6.41223 19.5029 6.71176L19.485 6.75407L17.6047 11.0177C17.2131 11.9046 16.5723 12.6587 15.7601 13.1881C14.9479 13.7175 13.9994 13.9996 13.0299 13.9999M5.63738 12.0002H13.0299C13.6111 12.0001 14.1799 11.8312 14.667 11.5141C15.1542 11.197 15.5388 10.7453 15.7742 10.2139L17.631 6.00476H17.6028H5.63644L5.63738 12.0002Z" fill="white"/>
<path id="Trazado 12492" d="M4.63671 6.0001C4.37141 6.0001 4.11697 5.89471 3.92937 5.70711C3.74177 5.51952 3.63638 5.26508 3.63638 4.99977V3.00005C3.63613 2.73482 3.53066 2.48053 3.34312 2.29299C3.15557 2.10544 2.90128 1.99997 2.63605 1.99972H1.63666C1.37679 1.99175 1.13023 1.88292 0.949223 1.69628C0.768219 1.50964 0.666992 1.25986 0.666992 0.999861C0.666992 0.739866 0.768219 0.490086 0.949223 0.303446C1.13023 0.116805 1.37679 0.00796971 1.63666 0L2.63605 0C3.43148 0.00074677 4.19413 0.317063 4.75658 0.87952C5.31904 1.44198 5.63535 2.20462 5.6361 3.00005V4.99977C5.6361 5.26491 5.53084 5.51921 5.34344 5.70678C5.15605 5.89435 4.90185 5.99986 4.63671 6.0001Z" fill="white"/>
<path id="Trazado 12493" d="M15.6369 17.9995H6.63677C5.84134 17.9987 5.0787 17.6824 4.51624 17.1199C3.95378 16.5575 3.63747 15.7949 3.63672 14.9994V12.9997C3.64469 12.7398 3.75352 12.4933 3.94016 12.3123C4.12681 12.1313 4.37659 12.03 4.63658 12.03C4.89657 12.03 5.14635 12.1313 5.33299 12.3123C5.51963 12.4933 5.62847 12.7398 5.63644 12.9997V14.9994C5.63669 15.2646 5.74216 15.5189 5.9297 15.7065C6.11725 15.894 6.37154 15.9995 6.63677 15.9997H15.6369C15.7708 15.9956 15.9042 16.0185 16.0291 16.0669C16.1539 16.1153 16.2679 16.1883 16.364 16.2815C16.4602 16.3748 16.5366 16.4864 16.5888 16.6097C16.641 16.7331 16.6679 16.8657 16.6679 16.9996C16.6679 17.1336 16.641 17.2661 16.5888 17.3895C16.5366 17.5128 16.4602 17.6245 16.364 17.7177C16.2679 17.811 16.1539 17.8839 16.0291 17.9323C15.9042 17.9808 15.7708 18.0036 15.6369 17.9995Z" fill="white"/>
<path id="Trazado 12494" d="M9.63752 20C9.37221 20 9.11778 19.8946 8.93018 19.707C8.74258 19.5195 8.63719 19.265 8.63719 18.9997V17C8.63308 16.8661 8.65591 16.7328 8.70431 16.6079C8.75271 16.483 8.8257 16.3691 8.91895 16.2729C9.0122 16.1768 9.12381 16.1003 9.24717 16.0481C9.37052 15.9959 9.5031 15.969 9.63705 15.969C9.771 15.969 9.90358 15.9959 10.0269 16.0481C10.1503 16.1003 10.2619 16.1768 10.3551 16.2729C10.4484 16.3691 10.5214 16.483 10.5698 16.6079C10.6182 16.7328 10.641 16.8661 10.6369 17V18.9997C10.6369 19.1311 10.611 19.2612 10.5608 19.3825C10.5105 19.5039 10.4368 19.6142 10.3439 19.707C10.251 19.7999 10.1408 19.8736 10.0194 19.9239C9.89803 19.9742 9.76794 20 9.63658 20" fill="white"/>
<path id="Trazado 12495" d="M13.6365 20C13.3712 20 13.1168 19.8946 12.9292 19.707C12.7416 19.5195 12.6362 19.265 12.6362 18.9997V17C12.6321 16.8661 12.6549 16.7328 12.7033 16.6079C12.7517 16.483 12.8247 16.3691 12.918 16.2729C13.0112 16.1768 13.1228 16.1003 13.2462 16.0481C13.3695 15.9959 13.5021 15.969 13.6361 15.969C13.77 15.969 13.9026 15.9959 14.026 16.0481C14.1493 16.1003 14.2609 16.1768 14.3542 16.2729C14.4474 16.3691 14.5204 16.483 14.5688 16.6079C14.6172 16.7328 14.64 16.8661 14.6359 17V18.9997C14.6359 19.1311 14.6101 19.2612 14.5598 19.3825C14.5095 19.5039 14.4358 19.6142 14.3429 19.707C14.2501 19.7999 14.1398 19.8736 14.0184 19.9239C13.897 19.9742 13.767 20 13.6356 20" fill="white"/>
</g>
</svg>
