<svg width="24" height="18" viewBox="0 0 24 18" fill="none" xmlns="http://www.w3.org/2000/svg">
<g id="&#240;&#159;&#166;&#134; icon &#34;credit card&#34;">
<path id="Vector (Stroke)" fill-rule="evenodd" clip-rule="evenodd" d="M3 2C2.44772 2 2 2.44772 2 3V15C2 15.5523 2.44772 16 3 16H21C21.5523 16 22 15.5523 22 15V3C22 2.44772 21.5523 2 21 2H3ZM0 3C0 1.34315 1.34315 0 3 0H21C22.6569 0 24 1.34315 24 3V15C24 16.6569 22.6569 18 21 18H3C1.34315 18 0 16.6569 0 15V3Z" fill="black"/>
<path id="Vector (Stroke)_2" fill-rule="evenodd" clip-rule="evenodd" d="M0.0781251 6.89722C0.0781251 6.18475 0.655697 5.60718 1.36817 5.60718L22.3774 5.60718C23.0899 5.60718 23.6675 6.18475 23.6675 6.89722C23.6675 7.60969 23.0899 8.18726 22.3774 8.18726L1.36817 8.18726C0.655697 8.18726 0.0781252 7.60969 0.0781251 6.89722Z" fill="black"/>
<path id="Vector (Stroke)_3" fill-rule="evenodd" clip-rule="evenodd" d="M3.76562 13.5319C3.76562 13.2265 4.01316 12.979 4.3185 12.979H6.53C6.83535 12.979 7.08288 13.2265 7.08288 13.5319C7.08288 13.8372 6.83535 14.0848 6.53 14.0848H4.3185C4.01316 14.0848 3.76562 13.8372 3.76562 13.5319Z" fill="black"/>
<path id="Vector (Stroke)_4" fill-rule="evenodd" clip-rule="evenodd" d="M8.1875 13.5319C8.1875 13.2265 8.43503 12.979 8.74038 12.979H10.9519C11.2572 12.979 11.5048 13.2265 11.5048 13.5319C11.5048 13.8372 11.2572 14.0848 10.9519 14.0848H8.74038C8.43503 14.0848 8.1875 13.8372 8.1875 13.5319Z" fill="black"/>
</g>
</svg>
