<svg width="209" height="38" viewBox="0 0 209 38" fill="none" xmlns="http://www.w3.org/2000/svg">
<rect width="209" height="38" fill="#1E1E1E"/>
<g id="W-PAYMENT" clip-path="url(#clip0_0_1)">
<rect width="1800" height="2151" transform="translate(-281 -470)" fill="white"/>
<g id="BG">
<g id="Pres - Browser" filter="url(#filter0_d_0_1)">
<path d="M-181 -347C-181 -350.314 -178.314 -353 -175 -353H1413C1416.31 -353 1419 -350.314 1419 -347V1585H-181V-347Z" fill="white" shape-rendering="crispEdges"/>
</g>
</g>
<g id="SAFE CHECKOUT">
<g id="Group 3293">
<g id="H1">
<path d="M46.4768 23.7627C46.4768 24.1425 46.5385 24.4844 46.662 24.7882C46.7854 25.092 47.0092 25.3731 47.3333 25.6314C47.6573 25.8744 48.1049 26.1023 48.6758 26.315C49.2468 26.5125 49.9798 26.7024 50.8749 26.8847C52.6958 27.2797 54.0307 27.8266 54.8794 28.5255C55.7281 29.2243 56.1525 30.189 56.1525 31.4196C56.1525 32.1032 56.0136 32.7261 55.7359 33.2882C55.4581 33.8503 55.0723 34.3289 54.5785 34.7239C54.1001 35.1189 53.5214 35.4227 52.8424 35.6354C52.1634 35.8481 51.4227 35.9544 50.6202 35.9544C49.324 35.9544 48.1357 35.7493 47.0555 35.3391C45.9907 34.9138 44.9722 34.2681 44 33.4021L45.1342 32.0804C45.983 32.84 46.8394 33.4097 47.7036 33.7895C48.5678 34.1542 49.5632 34.3365 50.6897 34.3365C51.7853 34.3365 52.6572 34.0858 53.3054 33.5844C53.9689 33.0831 54.3007 32.4223 54.3007 31.6019C54.3007 31.2221 54.239 30.8878 54.1155 30.5992C53.9921 30.2954 53.776 30.0219 53.4674 29.7788C53.1588 29.5357 52.7267 29.3155 52.1711 29.118C51.631 28.9205 50.9366 28.7306 50.0878 28.5483C49.1619 28.3508 48.3518 28.1229 47.6573 27.8646C46.9783 27.6063 46.4151 27.2949 45.9676 26.9303C45.52 26.5657 45.1882 26.1403 44.9722 25.6542C44.7562 25.1528 44.6481 24.5755 44.6481 23.9223C44.6481 23.2842 44.7793 22.6993 45.0416 22.1676C45.304 21.6206 45.6743 21.1573 46.1527 20.7775C46.6311 20.3825 47.1944 20.0786 47.8425 19.866C48.4906 19.6533 49.2005 19.5469 49.9721 19.5469C51.1603 19.5469 52.1943 19.714 53.0739 20.0483C53.9689 20.3673 54.8331 20.8534 55.6664 21.5067L54.6016 22.8968C53.8455 22.2891 53.0816 21.8485 52.31 21.5751C51.5539 21.3016 50.7591 21.1649 49.9258 21.1649C48.861 21.1649 48.02 21.4155 47.4027 21.9169C46.7854 22.4182 46.4768 23.0335 46.4768 23.7627Z" fill="#7A7A7A"/>
<path d="M63.8989 25.3351C63.189 25.3351 62.5409 25.4187 61.9545 25.5858C61.3835 25.7377 60.8202 25.9428 60.2647 26.2011L59.7323 24.7654C60.3958 24.4616 61.0671 24.2261 61.7461 24.059C62.4251 23.8767 63.2044 23.7855 64.084 23.7855C65.7198 23.7855 66.9775 24.1881 67.8571 24.9933C68.7367 25.7833 69.1765 26.9607 69.1765 28.5255V35.7265H67.4636V33.9491C67.0469 34.4808 66.4837 34.9517 65.7738 35.3619C65.0794 35.7721 64.1998 35.9772 63.135 35.9772C62.5794 35.9772 62.0316 35.9013 61.4915 35.7493C60.9668 35.5974 60.4884 35.3695 60.0563 35.0657C59.6397 34.7466 59.3002 34.3592 59.0378 33.9035C58.7909 33.4325 58.6675 32.8932 58.6675 32.2855C58.6675 31.6626 58.7909 31.1157 59.0378 30.6448C59.2848 30.1586 59.632 29.756 60.0795 29.437C60.5424 29.118 61.0826 28.8749 61.6998 28.7078C62.3325 28.5407 63.027 28.4571 63.7831 28.4571C64.5547 28.4571 65.226 28.5027 65.797 28.5938C66.3679 28.685 66.9235 28.8065 67.4636 28.9584V28.5483C67.4636 27.4848 67.1472 26.6872 66.5145 26.1555C65.8973 25.6086 65.0254 25.3351 63.8989 25.3351ZM63.9683 29.756C62.8418 29.756 61.9776 29.9763 61.3758 30.4169C60.7739 30.8575 60.473 31.4576 60.473 32.2172C60.473 32.597 60.5502 32.9312 60.7045 33.2198C60.8742 33.5085 61.098 33.7592 61.3758 33.9719C61.6535 34.1693 61.9699 34.3213 62.3248 34.4276C62.6952 34.534 63.081 34.5871 63.4822 34.5871C64.0377 34.5871 64.5547 34.5112 65.0331 34.3592C65.5269 34.1921 65.9513 33.9718 66.3062 33.6984C66.6766 33.4097 66.9621 33.0755 67.1627 32.6957C67.3787 32.3007 67.4867 31.8677 67.4867 31.3968V30.2574C67.0392 30.1358 66.5223 30.0219 65.9359 29.9156C65.3649 29.8092 64.709 29.756 63.9683 29.756Z" fill="#7A7A7A"/>
<path d="M79.2018 23.9906V25.4946H75.4287V35.7265H73.6464V25.4946H72.0029V23.9678H73.6464V22.9424C73.6464 21.651 73.955 20.6711 74.5723 20.0027C75.205 19.3342 76.1 19 77.2574 19C77.6741 19 78.029 19.0228 78.3222 19.0684C78.6308 19.1139 78.9318 19.1899 79.225 19.2962V20.8231C78.9009 20.7319 78.6077 20.6635 78.3453 20.618C78.083 20.5572 77.7975 20.5268 77.4889 20.5268C76.1 20.5268 75.4056 21.3624 75.4056 23.0335V23.9906H79.2018Z" fill="#7A7A7A"/>
<path d="M82.5394 30.4853C82.6011 31.1233 82.7555 31.693 83.0024 32.1944C83.2493 32.6805 83.5656 33.0983 83.9514 33.4477C84.3372 33.7819 84.7693 34.0402 85.2477 34.2225C85.7261 34.3896 86.2276 34.4732 86.7523 34.4732C87.5856 34.4732 88.2955 34.3213 88.8819 34.0174C89.4837 33.7136 90.0315 33.311 90.5254 32.8097L91.6365 33.7895C91.0346 34.458 90.3479 34.9973 89.5763 35.4075C88.8047 35.8025 87.8479 36 86.706 36C85.8881 36 85.1165 35.8557 84.3912 35.567C83.6659 35.2632 83.0332 34.8454 82.4931 34.3137C81.953 33.7668 81.5209 33.1135 81.1969 32.3539C80.8882 31.5943 80.7339 30.7587 80.7339 29.8472C80.7339 28.9964 80.8728 28.1988 81.1506 27.4544C81.4438 26.6948 81.845 26.0416 82.3542 25.4946C82.8635 24.9325 83.4653 24.492 84.1598 24.1729C84.8696 23.8539 85.6412 23.6944 86.4745 23.6944C87.3541 23.6944 88.1412 23.8615 88.8356 24.1957C89.53 24.5147 90.1164 24.9553 90.5948 25.5174C91.0732 26.0795 91.4358 26.7404 91.6827 27.5C91.9297 28.2596 92.0531 29.0724 92.0531 29.9383C92.0531 30.0143 92.0531 30.0979 92.0531 30.189C92.0531 30.2802 92.0454 30.3789 92.03 30.4853H82.5394ZM90.2476 29.1863C90.2013 28.6546 90.0856 28.1457 89.9004 27.6595C89.7306 27.1734 89.4837 26.748 89.1597 26.3834C88.851 26.0188 88.4652 25.7301 88.0023 25.5174C87.5547 25.2895 87.0301 25.1756 86.4282 25.1756C85.9035 25.1756 85.4174 25.2819 84.9699 25.4946C84.5224 25.6921 84.1289 25.9732 83.7894 26.3378C83.4499 26.6872 83.1721 27.105 82.9561 27.5912C82.74 28.0773 82.6011 28.609 82.5394 29.1863H90.2476Z" fill="#7A7A7A"/>
<path d="M116.303 33.1971C115.886 33.6224 115.446 34.0098 114.983 34.3592C114.536 34.6935 114.05 34.9821 113.525 35.2252C113.016 35.4683 112.452 35.6582 111.835 35.7949C111.233 35.9316 110.562 36 109.821 36C108.648 36 107.568 35.7873 106.581 35.3619C105.593 34.9366 104.737 34.3517 104.011 33.6072C103.286 32.8628 102.715 31.9969 102.298 31.0094C101.897 30.0067 101.696 28.9281 101.696 27.7735C101.696 26.634 101.897 25.563 102.298 24.5603C102.715 23.5576 103.286 22.6841 104.011 21.9397C104.737 21.1801 105.601 20.5876 106.604 20.1622C107.607 19.7216 108.702 19.5013 109.891 19.5013C110.631 19.5013 111.295 19.5621 111.881 19.6836C112.483 19.8052 113.039 19.9799 113.548 20.2078C114.057 20.4205 114.528 20.6863 114.96 21.0054C115.392 21.3092 115.809 21.651 116.21 22.0308L114.96 23.3525C114.266 22.7145 113.517 22.1903 112.715 21.7802C111.928 21.37 110.979 21.1649 109.868 21.1649C108.973 21.1649 108.139 21.332 107.368 21.6662C106.611 22.0004 105.948 22.4638 105.377 23.0563C104.821 23.6488 104.382 24.3476 104.058 25.1528C103.749 25.9428 103.595 26.8012 103.595 27.7279C103.595 28.6546 103.749 29.5206 104.058 30.3257C104.382 31.1309 104.821 31.8298 105.377 32.4223C105.948 33.0147 106.611 33.4857 107.368 33.8351C108.139 34.1693 108.973 34.3365 109.868 34.3365C110.979 34.3365 111.935 34.139 112.738 33.744C113.54 33.3338 114.327 32.7641 115.099 32.0349L116.303 33.1971Z" fill="#7A7A7A"/>
<path d="M120.985 35.7265H119.203V19.0912H120.985V25.996C121.386 25.3579 121.911 24.8186 122.559 24.378C123.207 23.9223 124.048 23.6944 125.082 23.6944C125.807 23.6944 126.448 23.8083 127.003 24.0362C127.574 24.2641 128.053 24.5907 128.439 25.0161C128.84 25.4263 129.141 25.92 129.341 26.4973C129.557 27.0746 129.665 27.7127 129.665 28.4115V35.7265H127.883V28.8445C127.883 27.7507 127.597 26.8847 127.027 26.2466C126.456 25.6086 125.638 25.2895 124.573 25.2895C124.064 25.2895 123.585 25.3807 123.138 25.563C122.706 25.7301 122.328 25.9808 122.003 26.315C121.679 26.634 121.425 27.0214 121.24 27.4772C121.07 27.933 120.985 28.4343 120.985 28.9812V35.7265Z" fill="#7A7A7A"/>
<path d="M134.531 30.4853C134.593 31.1233 134.747 31.693 134.994 32.1944C135.241 32.6805 135.557 33.0983 135.943 33.4477C136.329 33.7819 136.761 34.0402 137.24 34.2225C137.718 34.3896 138.219 34.4732 138.744 34.4732C139.577 34.4732 140.287 34.3213 140.874 34.0174C141.476 33.7136 142.023 33.311 142.517 32.8097L143.628 33.7895C143.026 34.458 142.34 34.9973 141.568 35.4075C140.797 35.8025 139.84 36 138.698 36C137.88 36 137.108 35.8557 136.383 35.567C135.658 35.2632 135.025 34.8454 134.485 34.3137C133.945 33.7668 133.513 33.1135 133.189 32.3539C132.88 31.5943 132.726 30.7587 132.726 29.8472C132.726 28.9964 132.865 28.1988 133.142 27.4544C133.436 26.6948 133.837 26.0416 134.346 25.4946C134.855 24.9325 135.457 24.492 136.152 24.1729C136.861 23.8539 137.633 23.6944 138.466 23.6944C139.346 23.6944 140.133 23.8615 140.827 24.1957C141.522 24.5147 142.108 24.9553 142.587 25.5174C143.065 26.0795 143.428 26.7404 143.675 27.5C143.921 28.2596 144.045 29.0724 144.045 29.9383C144.045 30.0143 144.045 30.0979 144.045 30.189C144.045 30.2802 144.037 30.3789 144.022 30.4853H134.531ZM142.239 29.1863C142.193 28.6546 142.077 28.1457 141.892 27.6595C141.722 27.1734 141.476 26.748 141.151 26.3834C140.843 26.0188 140.457 25.7301 139.994 25.5174C139.547 25.2895 139.022 25.1756 138.42 25.1756C137.895 25.1756 137.409 25.2819 136.962 25.4946C136.514 25.6921 136.121 25.9732 135.781 26.3378C135.442 26.6872 135.164 27.105 134.948 27.5912C134.732 28.0773 134.593 28.609 134.531 29.1863H142.239Z" fill="#7A7A7A"/>
<path d="M157.443 33.7212C156.841 34.3896 156.154 34.9366 155.383 35.3619C154.626 35.7873 153.685 36 152.559 36C151.679 36 150.861 35.8405 150.105 35.5214C149.364 35.1872 148.716 34.7391 148.161 34.1769C147.62 33.6148 147.196 32.9692 146.887 32.2399C146.579 31.4955 146.424 30.7055 146.424 29.87C146.424 29.0344 146.579 28.2444 146.887 27.5C147.196 26.7404 147.62 26.0795 148.161 25.5174C148.716 24.9553 149.364 24.5147 150.105 24.1957C150.861 23.8615 151.679 23.6944 152.559 23.6944C153.701 23.6944 154.642 23.8995 155.383 24.3097C156.139 24.7198 156.795 25.2136 157.35 25.7909L156.17 27.0214C155.691 26.5353 155.167 26.1175 154.596 25.7681C154.04 25.4187 153.353 25.244 152.535 25.244C151.934 25.244 151.37 25.3655 150.846 25.6086C150.321 25.8365 149.866 26.1631 149.48 26.5885C149.094 26.9987 148.793 27.4848 148.577 28.0469C148.361 28.5938 148.253 29.1863 148.253 29.8244C148.253 30.4625 148.361 31.0626 148.577 31.6247C148.809 32.1868 149.117 32.6805 149.503 33.1059C149.904 33.5161 150.375 33.8427 150.915 34.0858C151.455 34.3137 152.034 34.4276 152.651 34.4276C153.423 34.4276 154.102 34.2605 154.688 33.9263C155.29 33.592 155.83 33.1743 156.308 32.6729L157.443 33.7212Z" fill="#7A7A7A"/>
<path d="M171.014 35.7265H168.884L164.602 30.2346L162.172 32.6501V35.7265H160.389V19.0912H162.172V30.5764L168.63 23.945H170.852L165.829 29.004L171.014 35.7265Z" fill="#7A7A7A"/>
<path d="M185.304 29.8244C185.304 30.66 185.142 31.4576 184.818 32.2172C184.509 32.9616 184.077 33.6148 183.521 34.1769C182.966 34.7391 182.302 35.1872 181.531 35.5214C180.775 35.8405 179.941 36 179.031 36C178.136 36 177.31 35.8405 176.554 35.5214C175.798 35.1872 175.142 34.7466 174.586 34.1997C174.031 33.6376 173.599 32.9844 173.29 32.2399C172.982 31.4955 172.827 30.7055 172.827 29.87C172.827 29.0344 172.982 28.2444 173.29 27.5C173.614 26.7404 174.054 26.0795 174.61 25.5174C175.165 24.9553 175.821 24.5147 176.577 24.1957C177.349 23.8615 178.182 23.6944 179.077 23.6944C179.972 23.6944 180.798 23.8615 181.554 24.1957C182.326 24.5147 182.989 24.9553 183.545 25.5174C184.1 26.0643 184.532 26.71 184.841 27.4544C185.15 28.1988 185.304 28.9888 185.304 29.8244ZM183.475 29.87C183.475 29.2319 183.359 28.6318 183.128 28.0697C182.912 27.5076 182.603 27.0214 182.202 26.6113C181.801 26.1859 181.33 25.8517 180.79 25.6086C180.25 25.3655 179.664 25.244 179.031 25.244C178.383 25.244 177.789 25.3655 177.248 25.6086C176.708 25.8365 176.245 26.1631 175.86 26.5885C175.489 26.9987 175.196 27.4848 174.98 28.0469C174.764 28.5938 174.656 29.1863 174.656 29.8244C174.656 30.4625 174.764 31.0626 174.98 31.6247C175.211 32.1868 175.52 32.6729 175.906 33.0831C176.307 33.4933 176.778 33.8199 177.318 34.063C177.858 34.3061 178.444 34.4276 179.077 34.4276C179.725 34.4276 180.319 34.3137 180.859 34.0858C181.4 33.8427 181.863 33.5161 182.248 33.1059C182.634 32.6957 182.935 32.2172 183.151 31.6702C183.367 31.1081 183.475 30.508 183.475 29.87Z" fill="#7A7A7A"/>
<path d="M197.028 23.945H198.787V35.7265H197.028V33.6756C196.627 34.3137 196.102 34.8606 195.454 35.3164C194.806 35.7569 193.965 35.9772 192.931 35.9772C192.205 35.9772 191.557 35.8633 190.986 35.6354C190.431 35.4075 189.952 35.0885 189.551 34.6783C189.165 34.2529 188.864 33.7516 188.648 33.1743C188.448 32.597 188.347 31.9589 188.347 31.2601V23.945H190.13V30.8271C190.13 31.9209 190.415 32.7869 190.986 33.4249C191.557 34.063 192.375 34.382 193.44 34.382C193.949 34.382 194.42 34.2985 194.852 34.1314C195.299 33.9491 195.677 33.6984 195.986 33.3794C196.31 33.0451 196.565 32.6501 196.75 32.1944C196.935 31.7386 197.028 31.2373 197.028 30.6903V23.945Z" fill="#7A7A7A"/>
<path d="M205.204 32.3767C205.204 33.1059 205.389 33.6148 205.759 33.9035C206.13 34.1921 206.616 34.3365 207.218 34.3365C207.526 34.3365 207.812 34.3061 208.074 34.2453C208.352 34.1845 208.645 34.0782 208.954 33.9263V35.4303C208.645 35.5974 208.313 35.7189 207.958 35.7949C207.619 35.8861 207.233 35.9316 206.801 35.9316C206.323 35.9316 205.875 35.8709 205.458 35.7493C205.042 35.6278 204.679 35.4379 204.37 35.1796C204.077 34.9062 203.846 34.5567 203.676 34.1314C203.506 33.706 203.421 33.1971 203.421 32.6046V25.4946H201.755V23.945H203.421V20.3901H205.204V23.945H209V25.4946H205.204V32.3767Z" fill="#7A7A7A"/>
</g>
<g id="H1_2">
<path d="M53.819 11.3743C53.3155 11.82 52.6938 12.2049 51.9539 12.529C51.2242 12.843 50.4021 13 49.4875 13C48.6449 13 47.8844 12.8582 47.2062 12.5746C46.528 12.291 45.9474 11.901 45.4644 11.4047C44.9917 10.9084 44.6269 10.326 44.3699 9.65746C44.1233 8.98895 44 8.27486 44 7.51519C44 6.78591 44.1285 6.08702 44.3854 5.41851C44.6525 4.75 45.0225 4.16252 45.4952 3.65608C45.9679 3.14963 46.5331 2.74954 47.1908 2.4558C47.8588 2.15193 48.5986 2 49.4105 2C50.3251 2 51.0907 2.12661 51.7072 2.37983C52.3238 2.62293 52.8993 2.96731 53.4337 3.41298L52.6475 4.32459C52.2365 3.97007 51.774 3.6814 51.2602 3.45856C50.7567 3.2256 50.1247 3.10912 49.3642 3.10912C48.7682 3.10912 48.2184 3.2256 47.7149 3.45856C47.2113 3.69153 46.7797 4.00552 46.4201 4.40055C46.0604 4.79558 45.7778 5.26151 45.5723 5.79834C45.3667 6.32505 45.264 6.8872 45.264 7.48481C45.264 8.12293 45.3616 8.71547 45.5569 9.26243C45.7624 9.79926 46.0501 10.2652 46.4201 10.6602C46.79 11.0552 47.237 11.3642 47.7611 11.587C48.2852 11.8099 48.8761 11.9213 49.5338 11.9213C50.1504 11.9213 50.731 11.82 51.2756 11.6174C51.8203 11.4047 52.2776 11.1515 52.6475 10.8577V8.21409H49.3642V7.13536H53.819V11.3743Z" fill="#7A7A7A"/>
<path d="M66.1534 8.27486C66.1534 9.04466 66.0455 9.7233 65.8296 10.3108C65.6138 10.8983 65.3056 11.3895 64.9048 11.7845C64.5143 12.1796 64.0416 12.4784 63.4866 12.6809C62.942 12.8835 62.3306 12.9848 61.6523 12.9848C60.9844 12.9848 60.3729 12.8886 59.818 12.6961C59.2734 12.4936 58.8007 12.1998 58.3999 11.8149C58.0094 11.4199 57.7062 10.9337 57.4904 10.3564C57.2746 9.77901 57.1667 9.11556 57.1667 8.36602V2.18232H58.3845V8.29006C58.3845 9.44475 58.6722 10.331 59.2477 10.9489C59.8334 11.5668 60.6453 11.8757 61.6832 11.8757C62.68 11.8757 63.4712 11.582 64.057 10.9945C64.6427 10.407 64.9356 9.53085 64.9356 8.36602V2.18232H66.1534V8.27486Z" fill="#7A7A7A"/>
<path d="M79.8536 12.8177H78.5433L77.2793 10.0069H71.4064L70.127 12.8177H68.8785L73.7957 2.10635H74.9363L79.8536 12.8177ZM74.3506 3.50414L71.8843 8.92818H76.8015L74.3506 3.50414Z" fill="#7A7A7A"/>
<path d="M90.1818 12.8177L87.0527 8.68508H83.9698V12.8177H82.7521V2.18232H87.3918C87.9879 2.18232 88.5222 2.25829 88.9949 2.41022C89.4779 2.56215 89.889 2.77993 90.2281 3.06354C90.5672 3.33702 90.8292 3.67127 91.0142 4.0663C91.1992 4.4512 91.2917 4.88168 91.2917 5.35773C91.2917 5.80341 91.2197 6.2035 91.0759 6.55801C90.932 6.90239 90.7265 7.20626 90.4593 7.46961C90.2024 7.72284 89.8941 7.93554 89.5344 8.10774C89.1748 8.2698 88.7843 8.39134 88.3629 8.47238L91.677 12.8177H90.1818ZM90.0585 5.40331C90.0585 4.73481 89.817 4.21823 89.334 3.85359C88.8511 3.47882 88.1728 3.29144 87.2993 3.29144H83.9698V7.60635H87.2839C87.6847 7.60635 88.0546 7.55571 88.3938 7.45442C88.7329 7.35313 89.0258 7.21133 89.2724 7.02901C89.519 6.83656 89.7091 6.60359 89.8427 6.33011C89.9866 6.05663 90.0585 5.7477 90.0585 5.40331Z" fill="#7A7A7A"/>
<path d="M104.712 12.8177H103.402L102.138 10.0069H96.2653L94.9859 12.8177H93.7373L98.6545 2.10635H99.7952L104.712 12.8177ZM99.2094 3.50414L96.7431 8.92818H101.66L99.2094 3.50414Z" fill="#7A7A7A"/>
<path d="M115.549 2.18232H116.736V12.8177H115.765L108.798 4.09669V12.8177H107.611V2.18232H108.752L115.549 10.7058V2.18232Z" fill="#7A7A7A"/>
<path d="M124.644 12.8177H123.411V3.29144H119.789V2.18232H128.267V3.29144H124.644V12.8177Z" fill="#7A7A7A"/>
<path d="M139.125 3.27624H132.543V6.90746H138.432V8.00138H132.543V11.7238H139.202V12.8177H131.326V2.18232H139.125V3.27624Z" fill="#7A7A7A"/>
<path d="M150.223 3.27624H143.641V6.90746H149.529V8.00138H143.641V11.7238H150.3V12.8177H142.423V2.18232H150.223V3.27624Z" fill="#7A7A7A"/>
<path d="M163 7.48481C163 8.23435 162.861 8.93324 162.584 9.58149C162.306 10.2297 161.911 10.797 161.397 11.2831C160.893 11.7592 160.292 12.134 159.593 12.4075C158.895 12.6809 158.119 12.8177 157.266 12.8177H153.52V2.18232H157.266C158.119 2.18232 158.895 2.31906 159.593 2.59254C160.292 2.85589 160.893 3.2256 161.397 3.70166C161.911 4.17772 162.306 4.73987 162.584 5.38812C162.861 6.03637 163 6.73527 163 7.48481ZM161.736 7.51519C161.736 6.91759 161.628 6.36556 161.412 5.85912C161.207 5.34254 160.909 4.89687 160.518 4.5221C160.138 4.1372 159.67 3.8384 159.116 3.62569C158.561 3.40285 157.944 3.29144 157.266 3.29144H154.738V11.7086H157.266C157.944 11.7086 158.561 11.6022 159.116 11.3895C159.67 11.1768 160.138 10.8831 160.518 10.5083C160.909 10.1234 161.207 9.67772 161.412 9.17127C161.628 8.6547 161.736 8.10267 161.736 7.51519Z" fill="#7A7A7A"/>
</g>
</g>
<g id="Group 3292">
<g id="&#240;&#159;&#166;&#134; icon &#34;shield&#34;">
<path id="Vector (Stroke)" fill-rule="evenodd" clip-rule="evenodd" d="M15.0465 0.0820176C15.3389 -0.0273392 15.6611 -0.0273392 15.9535 0.0820176L30.1619 5.39564C30.666 5.58417 31 6.06481 31 6.60177V19.0002C31 24.8889 27.084 29.6439 23.4547 32.8109C21.613 34.418 19.7773 35.676 18.4046 36.5316C17.717 36.9602 17.142 37.29 16.7361 37.5141C16.533 37.6262 16.372 37.712 16.26 37.7706C16.204 37.8 16.1602 37.8225 16.1295 37.8382L16.0934 37.8565L16.083 37.8618L16.0785 37.864C16.078 37.8642 16.0777 37.8644 15.5 36.7123C14.9223 37.8644 14.922 37.8642 14.9215 37.864L14.917 37.8618L14.9066 37.8565L14.8705 37.8382C14.8398 37.8225 14.796 37.8 14.74 37.7706C14.628 37.712 14.467 37.6262 14.2639 37.5141C13.858 37.29 13.283 36.9602 12.5954 36.5316C11.2227 35.676 9.38703 34.418 7.54526 32.8109C3.916 29.6439 0 24.8889 0 19.0002V6.60177C0 6.06481 0.33399 5.58417 0.838132 5.39564L15.0465 0.0820176ZM15.5 36.7123L14.9215 37.864C15.2851 38.0453 15.7149 38.0453 16.0785 37.864L15.5 36.7123ZM15.5 35.2518C15.8704 35.047 16.3998 34.7431 17.0355 34.3469C18.3269 33.5419 20.0433 32.3645 21.7536 30.872C25.2285 27.8398 28.4167 23.7387 28.4167 19.0002V7.49446L15.5 2.66389L2.58333 7.49446V19.0002C2.58333 23.7387 5.77149 27.8398 9.2464 30.872C10.9567 32.3645 12.6731 33.5419 13.9645 34.3469C14.6002 34.7431 15.1296 35.047 15.5 35.2518Z" fill="#7A7A7A"/>
</g>
<g id="&#240;&#159;&#166;&#134; icon &#34;check&#34;">
<path id="Vector (Stroke)_2" fill-rule="evenodd" clip-rule="evenodd" d="M24.6226 12.381C25.1258 12.8891 25.1258 13.7128 24.6226 14.2208L13.3319 25.619C13.0903 25.8629 12.7625 26 12.4207 26C12.079 26 11.7512 25.8629 11.5095 25.619L6.37743 20.438C5.87419 19.9299 5.87419 19.1063 6.37743 18.5982C6.88068 18.0902 7.6966 18.0902 8.19985 18.5982L12.4207 22.8593L22.8001 12.381C23.3034 11.873 24.1193 11.873 24.6226 12.381Z" fill="#7A7A7A"/>
</g>
</g>
</g>
</g>
<defs>
<filter id="filter0_d_0_1" x="-201" y="-369" width="1640" height="1978" filterUnits="userSpaceOnUse" color-interpolation-filters="sRGB">
<feFlood flood-opacity="0" result="BackgroundImageFix"/>
<feColorMatrix in="SourceAlpha" type="matrix" values="0 0 0 0 0 0 0 0 0 0 0 0 0 0 0 0 0 0 127 0" result="hardAlpha"/>
<feOffset dy="4"/>
<feGaussianBlur stdDeviation="10"/>
<feComposite in2="hardAlpha" operator="out"/>
<feColorMatrix type="matrix" values="0 0 0 0 0 0 0 0 0 0 0 0 0 0 0 0 0 0 0.2 0"/>
<feBlend mode="normal" in2="BackgroundImageFix" result="effect1_dropShadow_0_1"/>
<feBlend mode="normal" in="SourceGraphic" in2="effect1_dropShadow_0_1" result="shape"/>
</filter>
<clipPath id="clip0_0_1">
<rect width="1800" height="2151" fill="white" transform="translate(-281 -470)"/>
</clipPath>
</defs>
</svg>
