<?xml version="1.0" encoding="UTF-8"?>
<svg width="148px" height="22px" viewBox="0 0 148 22" version="1.1" xmlns="http://www.w3.org/2000/svg" xmlns:xlink="http://www.w3.org/1999/xlink">
    <title>Group 2</title>
    <defs>
        <linearGradient x1="100%" y1="0.00120846652%" x2="0%" y2="99.9987915%" id="linearGradient-1">
            <stop stop-color="#9646FF" offset="0%"></stop>
            <stop stop-color="#2CBBFF" offset="100%"></stop>
        </linearGradient>
        <linearGradient x1="100%" y1="0%" x2="0%" y2="100%" id="linearGradient-2">
            <stop stop-color="#2CBBFF" offset="0%"></stop>
            <stop stop-color="#9646FF" offset="100%"></stop>
        </linearGradient>
    </defs>
    <g id="Branding" stroke="none" stroke-width="1" fill="none" fill-rule="evenodd">
        <g id="Powered-by-urvenue" transform="translate(-327.000000, -130.000000)">
            <g id="Group-2" transform="translate(327.000000, 130.000000)">
                <path d="M1.29289912,14.9356081 L1.29289912,11.7330765 L2.64042779,11.7330765 C3.17458329,11.7330765 3.64702765,11.6654742 4.05776086,11.5302697 C4.46849407,11.3950651 4.81144619,11.2043662 5.08661721,10.9581728 C5.36178823,10.7119795 5.57018981,10.4183636 5.71182195,10.0773253 C5.85345409,9.73628692 5.92427016,9.36195194 5.92427016,8.95432031 C5.92427016,8.54668868 5.85851238,8.17538066 5.72699682,7.84039626 C5.59548126,7.50541185 5.39416129,7.21986791 5.1230369,6.98376445 C4.85191252,6.74766098 4.50997206,6.56503394 4.09721553,6.43588332 C3.684459,6.30673271 3.19886309,6.2421574 2.64042779,6.2421574 L2.64042779,6.2421574 L0,6.2421574 L0,14.9356081 L1.29289912,14.9356081 Z M2.64042779,10.7160154 L1.29289912,10.7160154 L1.29289912,7.25316456 L2.64042779,7.25316456 C3.3121688,7.25316456 3.81293959,7.40451293 4.14274015,7.70720969 C4.47254071,8.00990644 4.63744099,8.42560998 4.63744099,8.95432031 C4.63744099,9.21665749 4.59495134,9.45578793 4.50997206,9.67171161 C4.42499277,9.8876353 4.2985355,10.0732893 4.13060025,10.2286736 C3.962665,10.384058 3.75426342,10.5041277 3.50539551,10.5888828 C3.2565276,10.6736379 2.96820503,10.7160154 2.64042779,10.7160154 L2.64042779,10.7160154 Z M9.73012814,15.0203632 C10.183351,15.0203632 10.5930726,14.946707 10.9592928,14.7993946 C11.3255131,14.6520822 11.6371038,14.4412034 11.8940649,14.1667584 C12.1510261,13.8923133 12.3482995,13.5593469 12.485885,13.1678591 C12.6234705,12.7763713 12.6922632,12.33847 12.6922632,11.8541552 C12.6922632,11.3698404 12.6234705,10.9329481 12.485885,10.5434783 C12.3482995,10.1540084 12.1510261,9.82104201 11.8940649,9.54457898 C11.6371038,9.26811594 11.3255131,9.05622822 10.9592928,8.9089158 C10.5930726,8.76160338 10.183351,8.68794717 9.73012814,8.68794717 C9.27285866,8.68794717 8.86111379,8.76160338 8.49489354,8.9089158 C8.12867328,9.05622822 7.81607091,9.26811594 7.55708642,9.54457898 C7.29810194,9.82104201 7.09880528,10.1540084 6.95919645,10.5434783 C6.81958763,10.9329481 6.74978322,11.3698404 6.74978322,11.8541552 C6.74978322,12.33847 6.81958763,12.7763713 6.95919645,13.1678591 C7.09880528,13.5593469 7.29810194,13.8923133 7.55708642,14.1667584 C7.81607091,14.4412034 8.12867328,14.6520822 8.49489354,14.7993946 C8.86111379,14.946707 9.27285866,15.0203632 9.73012814,15.0203632 Z M9.73012814,14.1001651 C9.13931978,14.1001651 8.69924848,13.9044212 8.40991425,13.5129334 C8.12058002,13.1214456 7.9759129,12.5705375 7.9759129,11.8602091 C7.9759129,11.1498808 8.12058002,10.5979637 8.40991425,10.2044579 C8.69924848,9.81095212 9.13931978,9.61419923 9.73012814,9.61419923 C10.3128432,9.61419923 10.7478562,9.81095212 11.0351672,10.2044579 C11.3224781,10.5979637 11.4661335,11.1498808 11.4661335,11.8602091 C11.4661335,12.5705375 11.3224781,13.1214456 11.0351672,13.5129334 C10.7478562,13.9044212 10.3128432,14.1001651 9.73012814,14.1001651 Z M16.2431834,14.9356081 C16.3767222,14.9356081 16.4637248,14.8609429 16.5041912,14.7116125 L16.5041912,14.7116125 L17.8213701,10.7160154 C17.8861162,10.5182535 17.9366991,10.3144377 17.9731188,10.104568 C17.993352,10.2054669 18.0156084,10.3053568 18.0398882,10.4042378 C18.064168,10.5031187 18.0924945,10.6030086 18.1248675,10.7039075 L18.1248675,10.7039075 L19.4238366,14.7116125 C19.4643029,14.8609429 19.5411889,14.9356081 19.6544947,14.9356081 L19.6544947,14.9356081 L20.6014067,14.9356081 L22.58628,8.78481013 L21.6939975,8.78481013 C21.6130648,8.78481013 21.5412371,8.80700789 21.4785143,8.85140341 C21.4157915,8.89579894 21.3743135,8.95230233 21.3540804,9.02091359 L21.3540804,9.02091359 L20.2250699,12.7985691 C20.1846035,12.9559714 20.1481838,13.1083287 20.1158108,13.2556412 C20.0834377,13.4029536 20.0551113,13.549257 20.0308315,13.6945515 C19.9984584,13.5452211 19.9620387,13.3968997 19.9215724,13.2495872 C19.8811061,13.1022748 19.8386164,12.9519354 19.7941035,12.7985691 L19.7941035,12.7985691 L18.5922536,8.99669785 C18.5720204,8.92808659 18.5325658,8.87259218 18.4738896,8.83021464 C18.4152134,8.78783709 18.3413624,8.76664832 18.2523364,8.76664832 L18.2523364,8.76664832 L17.7363908,8.76664832 C17.6554581,8.76664832 17.5866654,8.78783709 17.5300125,8.83021464 C17.4733597,8.87259218 17.4349167,8.92808659 17.4146835,8.99669785 L17.4146835,8.99669785 L16.1824839,12.7985691 C16.1379709,12.9519354 16.0944696,13.1012658 16.05198,13.2465603 C16.0094903,13.3918547 15.9700356,13.5371491 15.933616,13.6824436 C15.9093362,13.5371491 15.883033,13.3918547 15.8547066,13.2465603 C15.8263802,13.1012658 15.7940071,12.9519354 15.7575874,12.7985691 L15.7575874,12.7985691 L14.6467868,9.02091359 C14.6265536,8.95230233 14.5850756,8.89579894 14.5223528,8.85140341 C14.45963,8.80700789 14.3817323,8.78481013 14.2886598,8.78481013 L14.2886598,8.78481013 L13.3538877,8.78481013 L15.3448309,14.9356081 L16.2431834,14.9356081 Z M26.2039696,15.0203632 C26.4265343,15.0203632 26.6521341,15.0022014 26.8807689,14.9658778 C27.1094036,14.9295542 27.3309567,14.8730508 27.5454283,14.7963676 C27.7598998,14.7196845 27.9622314,14.6197945 28.1524232,14.4966979 C28.3426149,14.3736012 28.5105501,14.2272977 28.6562289,14.0577876 L28.6562289,14.0577876 L28.3163118,13.6219042 C28.2637056,13.549257 28.1888429,13.5129334 28.0917237,13.5129334 C28.0188843,13.5129334 27.9349167,13.5432031 27.8398208,13.6037424 C27.7447249,13.6642818 27.6273726,13.7298661 27.4877638,13.8004953 C27.3481549,13.8711246 27.182243,13.9367089 26.9900279,13.9972482 C26.7978129,14.0577876 26.5701898,14.0880572 26.3071587,14.0880572 C26.027941,14.0880572 25.7750265,14.0436617 25.5484151,13.9548707 C25.3218036,13.8660796 25.1265536,13.7308751 24.962665,13.549257 C24.7987764,13.367639 24.6702958,13.1406164 24.5772232,12.8681893 C24.4841507,12.5957622 24.4315445,12.2759127 24.4194046,11.9086406 L24.4194046,11.9086406 L28.4619906,11.9086406 C28.5712496,11.9086406 28.6461123,11.877362 28.6865787,11.8148046 C28.727045,11.7522473 28.7472782,11.6301596 28.7472782,11.4485416 C28.7472782,11.0086223 28.6815204,10.6171345 28.5500048,10.2740782 C28.4184893,9.93102183 28.2374024,9.64245093 28.0067444,9.40836544 C27.7760863,9.17427995 27.501927,8.99568886 27.1842663,8.87259218 C26.8666056,8.74949551 26.5196069,8.68794717 26.1432701,8.68794717 C25.6940938,8.68794717 25.2894306,8.76664832 24.9292803,8.92405063 C24.56913,9.08145294 24.2646209,9.29737663 24.015753,9.57182168 C23.7668851,9.84626674 23.5756817,10.1681343 23.4421428,10.5374243 C23.3086039,10.9067144 23.2418345,11.3052651 23.2418345,11.7330765 C23.2418345,12.2658228 23.3156855,12.7370207 23.4633876,13.1466703 C23.6110897,13.5563199 23.817468,13.8993763 24.0825224,14.1758393 C24.3475768,14.4523023 24.6611909,14.6621721 25.0233645,14.8054485 C25.3855381,14.948725 25.7790731,15.0203632 26.2039696,15.0203632 Z M27.6789671,11.1761145 L24.4497543,11.1761145 C24.5266403,10.6675839 24.7077271,10.2700422 24.9930147,9.98348927 C25.2783023,9.69693634 25.669814,9.55365988 26.1675499,9.55365988 C26.4103478,9.55365988 26.6248193,9.59401945 26.8109644,9.67473858 C26.9971095,9.75545771 27.1549282,9.8684645 27.2844205,10.0137589 C27.4139127,10.1590534 27.5120435,10.3305815 27.578813,10.5283434 C27.6455824,10.7261053 27.6789671,10.942029 27.6789671,11.1761145 L27.6789671,11.1761145 Z M31.2056075,14.9356081 L31.2056075,11.0853054 C31.2824935,10.8875436 31.3654495,10.7109705 31.4544754,10.5555861 C31.5435013,10.4002018 31.6456788,10.2690332 31.7610078,10.1620804 C31.8763368,10.0551275 32.0068407,9.97440837 32.1525195,9.91992295 C32.2981983,9.86543753 32.4661335,9.83819483 32.6563253,9.83819483 C32.7858175,9.83819483 32.9072165,9.84929371 33.0205222,9.87149147 C33.1338279,9.89368923 33.2188072,9.90478811 33.2754601,9.90478811 C33.3806725,9.90478811 33.447442,9.8503027 33.4757684,9.74133187 L33.4757684,9.74133187 L33.5546777,8.85140341 C33.4656518,8.79086406 33.361451,8.74545955 33.2420753,8.71518987 C33.1226997,8.6849202 32.9962424,8.66978536 32.8627035,8.66978536 C32.4701802,8.66978536 32.1343097,8.78481013 31.855092,9.01485966 C31.5758744,9.24490919 31.337123,9.56173179 31.138838,9.96532746 L31.138838,9.96532746 L31.0659987,9.09961475 C31.0457655,8.98257201 31.0123808,8.90084388 30.9658445,8.85443038 C30.9193082,8.80801688 30.831294,8.78481013 30.7018017,8.78481013 L30.7018017,8.78481013 L30.0219674,8.78481013 L30.0219674,14.9356081 L31.2056075,14.9356081 Z M37.081318,15.0203632 C37.3038828,15.0203632 37.5294826,15.0022014 37.7581174,14.9658778 C37.9867521,14.9295542 38.2083052,14.8730508 38.4227768,14.7963676 C38.6372483,14.7196845 38.8395799,14.6197945 39.0297717,14.4966979 C39.2199634,14.3736012 39.3878986,14.2272977 39.5335774,14.0577876 L39.5335774,14.0577876 L39.1936603,13.6219042 C39.1410541,13.549257 39.0661913,13.5129334 38.9690722,13.5129334 C38.8962328,13.5129334 38.8122652,13.5432031 38.7171693,13.6037424 C38.6220734,13.6642818 38.5047211,13.7298661 38.3651122,13.8004953 C38.2255034,13.8711246 38.0595915,13.9367089 37.8673764,13.9972482 C37.6751614,14.0577876 37.4475383,14.0880572 37.1845072,14.0880572 C36.9052895,14.0880572 36.652375,14.0436617 36.4257636,13.9548707 C36.1991521,13.8660796 36.0039021,13.7308751 35.8400135,13.549257 C35.6761249,13.367639 35.5476443,13.1406164 35.4545717,12.8681893 C35.3614992,12.5957622 35.308893,12.2759127 35.2967531,11.9086406 L35.2967531,11.9086406 L39.3393391,11.9086406 C39.4485981,11.9086406 39.5234608,11.877362 39.5639272,11.8148046 C39.6043935,11.7522473 39.6246266,11.6301596 39.6246266,11.4485416 C39.6246266,11.0086223 39.5588689,10.6171345 39.4273533,10.2740782 C39.2958377,9.93102183 39.1147509,9.64245093 38.8840929,9.40836544 C38.6534348,9.17427995 38.3792755,8.99568886 38.0616148,8.87259218 C37.7439541,8.74949551 37.3969554,8.68794717 37.0206186,8.68794717 C36.5714423,8.68794717 36.1667791,8.76664832 35.8066288,8.92405063 C35.4464785,9.08145294 35.1419694,9.29737663 34.8931015,9.57182168 C34.6442335,9.84626674 34.4530302,10.1681343 34.3194913,10.5374243 C34.1859524,10.9067144 34.119183,11.3052651 34.119183,11.7330765 C34.119183,12.2658228 34.193034,12.7370207 34.3407361,13.1466703 C34.4884382,13.5563199 34.6948165,13.8993763 34.9598709,14.1758393 C35.2249253,14.4523023 35.5385394,14.6621721 35.900713,14.8054485 C36.2628866,14.948725 36.6564216,15.0203632 37.081318,15.0203632 Z M38.5563156,11.1761145 L35.3271028,11.1761145 C35.4039888,10.6675839 35.5850756,10.2700422 35.8703632,9.98348927 C36.1556508,9.69693634 36.5471625,9.55365988 37.0448984,9.55365988 C37.2876963,9.55365988 37.5021678,9.59401945 37.6883129,9.67473858 C37.874458,9.75545771 38.0322767,9.8684645 38.161769,10.0137589 C38.2912612,10.1590534 38.389392,10.3305815 38.4561615,10.5283434 C38.5229309,10.7261053 38.5563156,10.942029 38.5563156,11.1761145 L38.5563156,11.1761145 Z M42.8841892,15.0203632 C43.3212256,15.0203632 43.7066673,14.9265272 44.0405145,14.7388553 C44.3743617,14.5511833 44.6728008,14.3019629 44.935832,13.9911943 L44.935832,13.9911943 L45.0390211,14.6995047 C45.0794874,14.856907 45.1826766,14.9356081 45.3485885,14.9356081 L45.3485885,14.9356081 L46.0648425,14.9356081 L46.0648425,6 L44.8751325,6 L44.8751325,9.36598789 C44.6687542,9.14401027 44.4350612,8.97248211 44.1740534,8.85140341 C43.9130456,8.73032471 43.5963966,8.66978536 43.2241064,8.66978536 C42.8113498,8.66978536 42.441083,8.75151348 42.1133057,8.91496973 C41.7855285,9.07842598 41.5063108,9.30343056 41.2756528,9.58998349 C41.0449947,9.87653642 40.8689662,10.2155568 40.7475672,10.6070446 C40.6261682,10.9985324 40.5654687,11.4223078 40.5654687,11.8783709 C40.5654687,12.3869015 40.6200983,12.8369107 40.7293574,13.2283985 C40.8386164,13.6198863 40.9944118,13.9478077 41.1967434,14.2121629 C41.3990751,14.4765181 41.6428847,14.6773069 41.9281723,14.8145294 C42.2134599,14.951752 42.5321322,15.0203632 42.8841892,15.0203632 Z M43.2787359,14.0698954 C43.0440312,14.0698954 42.8336063,14.0285269 42.6474612,13.9457898 C42.4613161,13.8630527 42.3045091,13.733902 42.1770402,13.5583379 C42.0495712,13.3827738 41.9524521,13.1567602 41.8856826,12.8802972 C41.8189132,12.6038342 41.7855285,12.2698587 41.7855285,11.8783709 C41.7855285,11.131719 41.9342422,10.563658 42.2316697,10.1741882 C42.5290972,9.7847184 42.9489354,9.58998349 43.4911841,9.58998349 C43.7704018,9.58998349 44.0223047,9.64043295 44.2468928,9.74133187 C44.4714809,9.84223078 44.6808941,10.0198129 44.8751325,10.2740782 L44.8751325,10.2740782 L44.8751325,13.1920748 C44.6566143,13.4705559 44.4219096,13.6864795 44.1710184,13.8398459 C43.9201272,13.9932123 43.6226997,14.0698954 43.2787359,14.0698954 Z M53.6340688,15.0203632 C54.0427787,15.0203632 54.4110223,14.9406531 54.7387995,14.7812328 C55.0665767,14.6218125 55.3447827,14.3968079 55.5734175,14.106219 C55.8020522,13.8156302 55.9780807,13.4665199 56.101503,13.0588883 C56.2249253,12.6512567 56.2866365,12.1992295 56.2866365,11.7028068 C56.2866365,11.2346358 56.2320069,10.8148963 56.1227479,10.4435883 C56.0134888,10.0722803 55.8576934,9.7564667 55.6553618,9.4961475 C55.4530302,9.23582829 55.2071972,9.03604843 54.917863,8.89680793 C54.6285288,8.75756742 54.3037865,8.68794717 53.9436362,8.68794717 C53.5308797,8.68794717 53.1626361,8.77472023 52.8389055,8.94826637 C52.5151749,9.12181251 52.2258406,9.34984407 51.9709028,9.63236103 L51.9709028,9.63236103 L51.9709028,6 L50.7872627,6 L50.7872627,14.9356081 L51.5520763,14.9356081 C51.7220349,14.9356081 51.8232007,14.852871 51.8555738,14.6873968 L51.8555738,14.6873968 L51.9102033,14.1728123 C52.0154157,14.3059989 52.1266981,14.4250596 52.2440505,14.5299945 C52.3614028,14.6349294 52.4898834,14.7237204 52.6294922,14.7963676 C52.7691011,14.8690149 52.9218615,14.9245093 53.0877734,14.9628509 C53.2536853,15.0011924 53.4357838,15.0203632 53.6340688,15.0203632 Z M53.3427112,14.106219 C53.0756335,14.106219 52.8287889,14.0557696 52.6021775,13.9548707 C52.375566,13.8539717 52.1651412,13.6763897 51.9709028,13.4221244 L51.9709028,13.4221244 L51.9709028,10.5101816 C52.1853743,10.2276646 52.417044,10.009723 52.6659119,9.85635663 C52.9147798,9.70299028 53.2091724,9.6263071 53.5490895,9.6263071 C54.0306388,9.6263071 54.402929,9.79682627 54.6659601,10.1378646 C54.9289912,10.478903 55.0605068,11.0146762 55.0605068,11.7451844 C55.0605068,12.5362319 54.911793,13.1274995 54.6143655,13.5189873 C54.316938,13.9104751 53.8930533,14.106219 53.3427112,14.106219 Z M59.1637923,17 C59.2811446,17 59.3701705,16.9757843 59.43087,16.9273528 C59.4915695,16.8789213 59.5401291,16.81031 59.5765488,16.721519 L59.5765488,16.721519 L63,8.78481013 L62.053088,8.78481013 C61.9762019,8.78481013 61.9074092,8.80700789 61.8467097,8.85140341 C61.7860102,8.89579894 61.7414973,8.95230233 61.7131708,9.02091359 L61.7131708,9.02091359 L60.2017535,12.70776 C60.1653338,12.800587 60.1309375,12.894423 60.0985644,12.989268 C60.0661913,13.084113 60.0358416,13.179967 60.0075152,13.2768299 C59.987282,13.1840029 59.9619906,13.0901669 59.9316408,12.995322 C59.9012911,12.900477 59.8699297,12.806641 59.8375566,12.713814 L59.8375566,12.713814 L58.2715098,9.02091359 C58.24723,8.96037424 58.2067637,8.90588883 58.1501108,8.85745735 C58.0934579,8.80902587 58.0145486,8.78481013 57.9133828,8.78481013 L57.9133828,8.78481013 L56.8814915,8.78481013 L59.4126602,14.5481563 L58.2836497,17 L59.1637923,17 Z" id="Poweredby-Copy-2" fill="#0F1031" fill-rule="nonzero"></path>
                <g id="Group" transform="translate(73.000000, 0.000000)">
                    <polygon id="Fill-1" fill="url(#linearGradient-1)" points="73.2681603 11 73.2681603 20.2681603 64 20.2681603 64 21.9998671 75 21.9998671 75 11"></polygon>
                    <polygon id="Fill-4" fill="url(#linearGradient-2)" points="0 2.84217094e-14 0 11 1.73172766 11 1.73172766 1.73199352 11 1.73199352 11 2.84217094e-14"></polygon>
                    <path d="M8.29041002,6.31508109 L8.29041002,12.13764 C8.29041002,13.4241987 8.84506391,14.0988453 9.98342341,14.0988453 C11.1501668,14.0988453 11.7028171,13.550674 11.7028171,12.3094048 L11.7028171,12.3094048 L11.7028171,6.31508109 L13.9671807,6.31508109 L13.9671807,12.3094048 C13.9671807,13.681175 13.6990368,14.4215753 12.977753,15.0405325 C12.2417764,15.6682121 11.2132791,16 10.0044608,16 C8.72718744,16 7.63657961,15.639361 6.93533146,14.9835012 C6.30587776,14.4014466 6,13.5271905 6,12.3094048 L6,12.3094048 L6,6.31508109 L8.29041002,6.31508109 Z M52.3951117,6.31508109 L52.3951117,12.13764 C52.3951117,13.4241987 52.9497656,14.0988453 54.088459,14.0988453 C55.2548685,14.0988453 55.8075188,13.550674 55.8075188,12.3094048 L55.8075188,12.3094048 L55.8075188,6.31508109 L58.0718824,6.31508109 L58.0718824,12.3094048 C58.0718824,13.681175 57.8040724,14.4215753 57.0824547,15.0405325 C56.3464781,15.6682121 55.3179808,16 54.1091626,16 C52.8318891,16 51.7412813,15.639361 51.0400332,14.9835012 C50.4105795,14.4014466 50.1047017,13.5271905 50.1047017,12.3094048 L50.1047017,12.3094048 L50.1047017,6.31508109 L52.3951117,6.31508109 Z M64.202127,6.0576687 C64.9768392,6.0576687 65.9929812,6.28680028 66.6314509,6.70950275 C67.6940088,7.41266497 68.4152926,8.11482075 68.9322127,9.67278132 L68.9322127,9.67278132 L69,10.0532135 L61.7167032,12.3307748 L61.7814851,12.5367583 C62.4526798,13.8719614 63.9600294,14.0960608 65.1281084,13.7491764 C65.9051582,13.5187029 66.58036,13.0678203 66.8511753,12.1673969 L66.8511753,12.1673969 L69,12.1472682 C68.5732404,13.9400635 67.2832777,15.2165579 65.5531984,15.7472843 C64.2271715,16.1545548 62.8797733,16.0562597 61.7597798,15.4701793 C60.6407882,14.8844345 59.8053011,13.8407619 59.4075932,12.5310552 C59.0038746,11.205581 59.0940351,9.87608108 59.6613782,8.78778994 C60.2283875,7.69983427 61.1072851,6.76385022 62.3575104,6.32236096 C62.9031482,6.1297965 63.670848,6.0576687 64.202127,6.0576687 Z M35.192159,6.0576687 C35.9668712,6.0576687 36.9830132,6.28680028 37.6214829,6.70950275 C38.6840408,7.41266497 39.4053246,8.11482075 39.9222447,9.67278132 L39.9222447,9.67278132 L39.990032,10.0532135 L32.7067352,12.3307748 L32.7715171,12.5367583 C33.4427118,13.8719614 34.9500614,14.0960608 36.1181404,13.7491764 C36.8951902,13.5187029 37.570392,13.0678203 37.8412073,12.1673969 L37.8412073,12.1673969 L39.990032,12.1472682 C39.5632724,13.9400635 38.2733097,15.2165579 36.5432304,15.7472843 C35.2172035,16.1545548 33.8698053,16.0562597 32.7498118,15.4701793 C31.6308201,14.8844345 30.7953331,13.8407619 30.3976252,12.5310552 C29.9939066,11.205581 30.0840671,9.87608108 30.6514102,8.78778994 C31.2184195,7.69983427 32.0973171,6.76385022 33.3475424,6.32236096 C33.8931802,6.1297965 34.66088,6.0576687 35.192159,6.0576687 Z M45.0246932,6 C46.3019666,6 47.3925744,6.3609745 48.0938225,7.01649882 C48.7232762,7.5988889 49.029154,8.47314497 49.029154,9.69059521 L49.029154,9.69059521 L49.029154,15.6849189 L46.738744,15.6849189 L46.738744,9.8626955 C46.738744,8.57613677 46.1840901,7.90115472 45.0457306,7.90115472 C43.8789873,7.90115472 43.3263369,8.4496615 43.3263369,9.69059521 L43.3263369,9.69059521 L43.3263369,15.6849189 L41.0619733,15.6849189 L41.0619733,9.69059521 C41.0619733,8.31882502 41.3301172,7.57876021 42.051401,6.95980301 C42.7873776,6.3317879 43.8158749,6 45.0246932,6 Z M22.9379144,6.31494689 L25.3295045,13.032897 L27.7174214,6.31494689 L29.9503958,6.31494689 L26.5566887,15.6362075 L24.0612471,15.6362075 L20.7082792,6.31494689 L22.9379144,6.31494689 Z M19.3920364,6.31494689 L20.0969578,8.27682316 L18.7221775,8.28017794 C17.8369352,8.28017794 17.3116669,8.72502197 17.3063241,9.61437457 L17.3063241,9.61437457 L17.3029848,15.6362075 L15.039289,15.6362075 L15.039289,9.61907126 C15.039289,7.79675391 16.5145815,6.31494689 18.3274749,6.31494689 L18.3274749,6.31494689 L19.3920364,6.31494689 Z M66.3509516,9.37688958 C65.6804248,8.10777571 64.492978,7.78907146 63.1853171,8.14534927 C62.0299273,8.55261975 61.2458651,9.46780416 61.3954647,10.9328373 L61.3954647,10.9328373 Z M37.3409836,9.37688958 C36.6704568,8.10777571 35.48301,7.78907146 34.1753491,8.14534927 C33.0199593,8.55261975 32.2358971,9.46780416 32.3854967,10.9328373 L32.3854967,10.9328373 Z" id="Combined-Shape" fill="#0F1031"></path>
                </g>
            </g>
        </g>
    </g>
</svg>