<svg width="24" height="24" viewBox="0 0 24 24" fill="none" xmlns="http://www.w3.org/2000/svg">
<path d="M14.25 7.5C14.8434 7.5 15.4234 7.32405 15.9168 6.99441C16.4101 6.66477 16.7946 6.19623 17.0217 5.64805C17.2488 5.09987 17.3082 4.49667 17.1924 3.91473C17.0767 3.33279 16.7909 2.79824 16.3714 2.37868C15.9518 1.95912 15.4173 1.6734 14.8353 1.55765C14.2534 1.44189 13.6502 1.5013 13.102 1.72836C12.5538 1.95543 12.0853 2.33994 11.7556 2.83329C11.426 3.32664 11.25 3.90666 11.25 4.5C11.25 5.29565 11.5661 6.05871 12.1287 6.62132C12.6913 7.18393 13.4544 7.5 14.25 7.5ZM14.25 3C14.5467 3 14.8367 3.08797 15.0834 3.2528C15.3301 3.41762 15.5223 3.65189 15.6359 3.92598C15.7494 4.20007 15.7791 4.50167 15.7212 4.79264C15.6633 5.08361 15.5205 5.35088 15.3107 5.56066C15.1009 5.77044 14.8337 5.9133 14.5427 5.97118C14.2517 6.02906 13.9501 5.99935 13.676 5.88582C13.4019 5.77229 13.1677 5.58003 13.0028 5.33336C12.838 5.08668 12.75 4.79667 12.75 4.5C12.75 4.10218 12.9081 3.72065 13.1894 3.43934C13.4707 3.15804 13.8522 3 14.25 3ZM20.25 13.5C20.25 13.6989 20.171 13.8897 20.0304 14.0303C19.8897 14.171 19.699 14.25 19.5 14.25C16.1897 14.25 14.536 12.5803 13.2075 11.2388C12.9507 10.9791 12.705 10.7325 12.4575 10.5038L11.1985 13.3988L14.686 15.8897C14.7831 15.9591 14.8623 16.0507 14.9169 16.1568C14.9716 16.263 15.0001 16.3806 15 16.5V21.75C15 21.9489 14.921 22.1397 14.7804 22.2803C14.6397 22.421 14.449 22.5 14.25 22.5C14.0511 22.5 13.8604 22.421 13.7197 22.2803C13.5791 22.1397 13.5 21.9489 13.5 21.75V16.8863L10.5872 14.805L7.43817 22.0491C7.37989 22.1831 7.28371 22.2972 7.16146 22.3773C7.03921 22.4574 6.89621 22.5001 6.75005 22.5C6.64706 22.5002 6.54517 22.4788 6.45099 22.4372C6.26866 22.3579 6.12527 22.2095 6.05232 22.0246C5.97936 21.8397 5.98282 21.6333 6.06192 21.4509L11.1319 9.79125C10.2591 9.63656 9.17067 9.90375 7.8788 10.5956C6.84848 11.1639 5.88687 11.8487 5.01286 12.6366C4.86698 12.7672 4.67576 12.8357 4.48009 12.8272C4.28442 12.8188 4.09981 12.7341 3.96574 12.5913C3.83166 12.4486 3.75875 12.259 3.7626 12.0632C3.76644 11.8674 3.84673 11.6808 3.9863 11.5434C4.22067 11.3231 9.76974 6.17813 13.2413 9.19219C13.6004 9.50344 13.9425 9.84844 14.2725 10.1831C15.5804 11.5031 16.815 12.75 19.5 12.75C19.699 12.75 19.8897 12.829 20.0304 12.9697C20.171 13.1103 20.25 13.3011 20.25 13.5Z" fill="black"/>
</svg>
