<svg xmlns="http://www.w3.org/2000/svg" viewBox="0 0 516 93.55"><defs><style>.cls-1{fill:#38343f;}.cls-2{fill:#9dc6d8;}</style></defs><title>b4t-logo</title><g id="Layer_2" data-name="Layer 2"><g id="Layer_1-2" data-name="Layer 1"><g id="Logo"><path class="cls-1" d="M173,83.33c-11.45,0-19.66-7.59-20.09-18.73a142.74,142.74,0,0,1,0-16.33c.53-11,8.33-18.52,20.09-18.52s19.45,7.48,20,18.52a138.75,138.75,0,0,1,0,16.33C192.42,75.74,184.42,83.33,173,83.33ZM173,37c-6.66,0-11,4.57-11.25,11.44-.2,6.44-.2,10.51,0,15.82C162,71,166.31,76.05,173,76.05s10.81-5,11.13-11.66c.22-5.51.22-9.48,0-15.92C183.89,41.71,179.63,37,173,37Z"/><path class="cls-1" d="M218,83.33c-11.44,0-19.66-7.59-20.08-18.73a142.74,142.74,0,0,1,0-16.33c.52-11,8.33-18.52,20.08-18.52s19.46,7.48,20,18.52a143.22,143.22,0,0,1,0,16.33C237.46,75.74,229.45,83.33,218,83.33ZM218,37c-6.66,0-11,4.57-11.23,11.44-.21,6.44-.21,10.51,0,15.82.3,6.75,4.57,11.76,11.23,11.76s10.83-5,11.14-11.66c.2-5.51.2-9.48,0-15.92C228.93,41.71,224.67,37,218,37Z"/><path class="cls-1" d="M487.19,59.71V63c0,8.54,4.46,13,11.13,13,6.44,0,9.57-4.17,10.29-9.37l7.29.52c.42,8.23-6,16.13-17.58,16.13-12.28,0-19.56-7.59-19.88-18.73-.21-7.39-.21-10.62,0-15.5.53-10.73,7.29-19.35,19.88-19.35,11,0,17.68,6.86,17.68,17.17,0,6.86-1.46,7.8-9.16,9.46S487.19,59.71,487.19,59.71Zm0-5.73s7.48-.92,14.67-2.49c4.57-1,5.28-2,5.28-4.78,0-6-3.2-9.68-8.82-9.68-7.8,0-11.13,5.72-11.13,13.72Z"/><path class="cls-1" d="M455.5,29.75a17.08,17.08,0,0,0-15.59,9.46h-.22c-1.76-6.35-6.76-9.46-13.1-9.46a16.41,16.41,0,0,0-13.67,7.36V33.24a3.62,3.62,0,0,0-3.61-3.63H404V78.16a3.6,3.6,0,0,0,3.59,3.61h5.27V47.92C413.43,41.43,418,37,424.1,37c5.4,0,8.63,2.91,8.63,10.92l0,30.21a3.63,3.63,0,0,0,3.62,3.61h5.24l0-32.67c0-6.87,4.56-12.07,11.23-12.07,6.45,0,8.65,4.38,8.65,10.82l0,30.31a3.62,3.62,0,0,0,3.62,3.61h5.24V46.08C470.29,35.47,463.84,29.75,455.5,29.75Z"/><path class="cls-1" d="M390.18,68.66V33.22a3.61,3.61,0,0,0-3.6-3.61h-5.25V71.78c0,10.41,8.13,12.06,15.6,10V75.53C392.06,75.53,390.18,73.85,390.18,68.66Z"/><path class="cls-1" d="M374.49,75.53a44.33,44.33,0,0,1-6.45.52c-4.48,0-8.64-1-8.64-8.64V35.87h13.94V29.61H359.4V18.66a3.6,3.6,0,0,0-3.6-3.6h-5.25V29.61h-7.28v6.26h7.28v13l0,0v19c0,11.46,7.07,15.51,14.46,15.51a31,31,0,0,0,9.88-1.56Z"/><path class="cls-1" d="M253.11,7.33a3.6,3.6,0,0,0-3.59-3.61h-5.26V78.16a3.63,3.63,0,0,0,3.63,3.61h5.23Z"/><path class="cls-1" d="M277.24,71.47c-2.7-3.55-12.79-19.25-12.79-19.25s7.16-8.65,10.3-11.76c2.59-2.6,4.57-3.12,7.59-2.91V31.82a11,11,0,0,0-4.57-1,10.45,10.45,0,0,0-7.61,3.54L254.67,52.22v.31c1,1.66,9.56,15.71,14.46,22.37,3.95,5.4,6.56,7.69,11.24,7.69a10.37,10.37,0,0,0,4.68-.82V75.53C281,75.53,279.64,74.59,277.24,71.47Z"/><path class="cls-1" d="M145.94,47.12c-.42-11.44-7.29-17.37-16.44-17.37a17.91,17.91,0,0,0-14.89,8.32h-.09l0-30.75a3.59,3.59,0,0,0-3.58-3.6h-5.25V78.33c5.19,3.12,14,5,19.87,5,10.82,0,20.08-7.5,20.4-18.83C146.14,57.73,146.14,54.19,145.94,47.12ZM137.09,64.5c-.31,8.11-5.52,11.55-12.39,11.55a27.71,27.71,0,0,1-10.18-1.77V47.12C114.52,42.54,120.13,37,127,37c5.21,0,9.91,3.22,10.1,10.18C137.3,53.78,137.4,57.42,137.09,64.5Z"/><path class="cls-1" d="M328.11,58.41V33.23a3.61,3.61,0,0,0-3.6-3.62h-5.26v28.8h-20.5L318,10a3.41,3.41,0,0,0-1.9-4.42l-4.62-1.83L289.2,60l1.24,6.24h28.83v12a3.62,3.62,0,0,0,3.62,3.61h5.21V66.22h8.58a3.17,3.17,0,0,0,3.18-3.17V58.41Z"/><path class="cls-2" d="M40.7,0A40.75,40.75,0,0,0,0,40.7a40.32,40.32,0,0,0,1,8.74L12.13,39.5a28.61,28.61,0,0,1,57.19,1.2,29,29,0,0,1-22.59,28V40.53A5.87,5.87,0,0,0,41,34.68l-.37,0a6,6,0,0,0-3.33,1L6.6,63.13l2.11,2.7a41,41,0,0,0,25.95,15.1v6.58a6,6,0,0,0,6,6h6V80.93A40.69,40.69,0,0,0,40.7,0Zm-6,68.67a29.07,29.07,0,0,1-11-5l11-9.89Z"/></g></g></g></svg>