<svg width="22" height="21" viewBox="0 0 22 21" fill="none" xmlns="http://www.w3.org/2000/svg">
    <path
        d="M10.625 15.4063C10.7383 15.4711 10.8666 15.5051 10.9972 15.5051C11.1277 15.5051 11.256 15.4711 11.3694 15.4063C11.5991 15.2741 16.9944 12.125 16.9944 6.5047C16.9472 4.94592 16.2951 3.46673 15.176 2.38058C14.0569 1.29442 12.559 0.686645 10.9995 0.686036C9.43997 0.685426 7.94151 1.29203 6.8216 2.37731C5.7017 3.46259 5.04835 4.94127 5 6.50002C5 12.125 10.3981 15.2694 10.625 15.4063ZM11 4.25002C11.445 4.25002 11.88 4.38198 12.25 4.62921C12.62 4.87644 12.9084 5.22784 13.0787 5.63898C13.249 6.05011 13.2936 6.50251 13.2068 6.93897C13.12 7.37543 12.9057 7.77634 12.591 8.09101C12.2763 8.40567 11.8754 8.61997 11.439 8.70678C11.0025 8.7936 10.5501 8.74904 10.139 8.57875C9.72783 8.40845 9.37643 8.12006 9.12919 7.75005C8.88196 7.38004 8.75 6.94502 8.75 6.50002C8.75 5.90328 8.98705 5.33098 9.40901 4.90903C9.83097 4.48707 10.4033 4.25002 11 4.25002ZM21.5 16.25C21.5 19.1731 16.0897 20.75 11 20.75C5.91031 20.75 0.5 19.1731 0.5 16.25C0.5 14.8822 1.73937 13.671 3.99031 12.8403C4.17491 12.7793 4.37596 12.7924 4.5511 12.8768C4.72624 12.9612 4.86178 13.1103 4.92913 13.2926C4.99648 13.475 4.99039 13.6764 4.91215 13.8543C4.8339 14.0323 4.6896 14.1729 4.50969 14.2466C2.96187 14.8194 2 15.5863 2 16.25C2 17.5025 5.42375 19.25 11 19.25C16.5763 19.25 20 17.5025 20 16.25C20 15.5863 19.0381 14.8194 17.4903 14.2475C17.3104 14.1739 17.1661 14.0332 17.0879 13.8553C17.0096 13.6773 17.0035 13.4759 17.0709 13.2936C17.1382 13.1112 17.2738 12.9621 17.4489 12.8777C17.624 12.7934 17.8251 12.7803 18.0097 12.8413C20.2606 13.671 21.5 14.8822 21.5 16.25Z" />
</svg>