<svg width="24" height="24" viewBox="0 0 24 24" fill="none" xmlns="http://www.w3.org/2000/svg">
<path d="M19.5 12.75H16.5V9.75H18C18.3978 9.75 18.7794 9.59196 19.0607 9.31066C19.342 9.02936 19.5 8.64782 19.5 8.25V3.75C19.5 3.35218 19.342 2.97064 19.0607 2.68934C18.7794 2.40804 18.3978 2.25 18 2.25H6C5.60218 2.25 5.22064 2.40804 4.93934 2.68934C4.65804 2.97064 4.5 3.35218 4.5 3.75V8.25C4.5 8.64782 4.65804 9.02936 4.93934 9.31066C5.22064 9.59196 5.60218 9.75 6 9.75H7.5V12.75H4.5C4.10218 12.75 3.72064 12.908 3.43934 13.1893C3.15804 13.4706 3 13.8522 3 14.25V15.75C3 16.1478 3.15804 16.5294 3.43934 16.8107C3.72064 17.092 4.10218 17.25 4.5 17.25H5.25V21C5.25 21.1989 5.32902 21.3897 5.46967 21.5303C5.61032 21.671 5.80109 21.75 6 21.75C6.19891 21.75 6.38968 21.671 6.53033 21.5303C6.67098 21.3897 6.75 21.1989 6.75 21V17.25H17.25V21C17.25 21.1989 17.329 21.3897 17.4697 21.5303C17.6103 21.671 17.8011 21.75 18 21.75C18.1989 21.75 18.3897 21.671 18.5303 21.5303C18.671 21.3897 18.75 21.1989 18.75 21V17.25H19.5C19.8978 17.25 20.2794 17.092 20.5607 16.8107C20.842 16.5294 21 16.1478 21 15.75V14.25C21 13.8522 20.842 13.4706 20.5607 13.1893C20.2794 12.908 19.8978 12.75 19.5 12.75ZM6 3.75H18V8.25H6V3.75ZM9 9.75H15V12.75H9V9.75ZM19.5 15.75H4.5V14.25H19.5V15.75Z" fill="black"/>
</svg>
