<svg width="24" height="24" viewBox="0 0 24 24" fill="none" xmlns="http://www.w3.org/2000/svg">
<path d="M22.5 11.8716C22.3287 9.90836 21.6106 8.03245 20.4271 6.45675C19.2436 4.88106 17.6421 3.66867 15.8043 2.95719C13.9666 2.24572 11.9662 2.06364 10.0302 2.43163C8.09416 2.79963 6.30008 3.70295 4.85153 5.03908C2.91771 6.81564 1.72296 9.25467 1.50465 11.8716C1.48685 12.0787 1.5123 12.2872 1.57937 12.484C1.64645 12.6808 1.75369 12.8614 1.89429 13.0146C2.03489 13.1677 2.20578 13.2899 2.39612 13.3735C2.58646 13.457 2.79209 13.5001 2.99997 13.5H11.25V18.75C11.25 19.5457 11.566 20.3087 12.1286 20.8713C12.6913 21.4339 13.4543 21.75 14.25 21.75C15.0456 21.75 15.8087 21.4339 16.3713 20.8713C16.9339 20.3087 17.25 19.5457 17.25 18.75C17.25 18.5511 17.171 18.3603 17.0303 18.2197C16.8896 18.079 16.6989 18 16.5 18C16.3011 18 16.1103 18.079 15.9696 18.2197C15.829 18.3603 15.75 18.5511 15.75 18.75C15.75 19.1478 15.5919 19.5294 15.3106 19.8107C15.0293 20.092 14.6478 20.25 14.25 20.25C13.8521 20.25 13.4706 20.092 13.1893 19.8107C12.908 19.5294 12.75 19.1478 12.75 18.75V13.5H21C21.2082 13.5008 21.4144 13.4582 21.6053 13.3749C21.7962 13.2916 21.9676 13.1695 22.1088 13.0163C22.2499 12.8631 22.3575 12.6822 22.4249 12.4851C22.4922 12.288 22.5178 12.0791 22.5 11.8716ZM2.99997 12C3.16619 10.068 3.95102 8.24108 5.23794 6.79051C6.52487 5.33994 8.24526 4.34304 10.1437 3.94783C9.04497 5.43751 7.67341 8.07283 7.51591 12H2.99997ZM9.01403 12C9.14434 9.11533 10.0012 7.04908 10.7297 5.79001C11.0888 5.16456 11.5148 4.5799 12 4.04626C12.4843 4.57998 12.9093 5.16465 13.2675 5.79001C14.5125 7.94064 14.9062 10.245 14.9831 12H9.01403ZM16.4812 12C16.3237 8.07283 14.9522 5.43751 13.8562 3.94314C15.7559 4.33748 17.4775 5.33473 18.7647 6.78646C20.0519 8.23818 20.8359 10.0668 21 12H16.4812Z" fill="black"/>
</svg>
