<svg width="26" height="26" viewBox="0 0 26 26" class="svg-wine-bottle" fill="none" xmlns="http://www.w3.org/2000/svg">
<path fill-rule="evenodd" clip-rule="evenodd" d="M13.5694 3.25H9.64702C9.21376 3.25 8.86254 3.60122 8.86254 4.03448V9.81659C7.3082 10.7272 6.39823 12.4347 6.50909 14.2328V25.2155C6.50909 25.6488 6.86031 26 7.29357 26H11.216V24.431H8.07806V14.2328C8.07806 11.7322 9.82824 11.0791 9.89523 11.0546L10.4315 10.8757V4.81897H12.785V8.74138H14.3539V4.03448C14.3539 3.60122 14.0027 3.25 13.5694 3.25ZM20.3125 10.5625H12.1875C11.7388 10.5625 11.375 10.9263 11.375 11.375V14.625C11.3789 17.0014 13.0946 19.0293 15.4375 19.4269V24.375H13V26H19.5V24.375H17.0625V19.4269C19.4054 19.0293 21.1211 17.0014 21.125 14.625V11.375C21.125 10.9263 20.7612 10.5625 20.3125 10.5625ZM16.25 17.875C18.0449 17.875 19.5 16.4199 19.5 14.625V12.1875H13V14.625C13 16.4199 14.4551 17.875 16.25 17.875Z" fill="white"/>
</svg>
