<?xml version="1.0" encoding="UTF-8"?>
<svg width="142px" height="42px" viewBox="0 0 142 42" version="1.1" xmlns="http://www.w3.org/2000/svg" xmlns:xlink="http://www.w3.org/1999/xlink">
    <title>Brackets-Full-White-Gradient</title>
    <defs>
        <linearGradient x1="120.691694%" y1="21.0634441%" x2="21.2268394%" y2="121.063444%" id="linearGradient-1">
            <stop stop-color="#9646D8" offset="0%"></stop>
            <stop stop-color="#2CBBFF" offset="100%"></stop>
        </linearGradient>
        <linearGradient x1="-20.6916945%" y1="78.9365559%" x2="78.7851819%" y2="-21.0634441%" id="linearGradient-2">
            <stop stop-color="#9646D8" offset="0%"></stop>
            <stop stop-color="#2CBBFF" offset="100%"></stop>
        </linearGradient>
    </defs>
    <g id="Symbols" stroke="none" stroke-width="1" fill="none" fill-rule="evenodd">
        <g id="M---Navi" fill-rule="nonzero">
            <g id="Brackets-Full-White-Gradient">
                <g id="Group-2">
                    <polygon id="Path" fill="url(#linearGradient-1)" points="141.83 41.4836476 121.1425 41.4836476 121.1425 38.2175937 138.5725 38.2175937 138.5725 20.7418238 141.83 20.7418238"></polygon>
                    <polygon id="Path" fill="url(#linearGradient-2)" points="0 -9.09494702e-13 20.6875 -9.09494702e-13 20.6875 3.26605395 3.2575 3.26605395 3.2575 20.7418238 0 20.7418238"></polygon>
                    <path d="M15.775,11.698138 L15.775,22.9776796 C15.775,25.4692051 17.3275,27.208761 19.5775,27.208761 C21.8725,27.208761 23.3,25.7123418 23.3,23.3110528 L23.3,23.3110528 L23.3,11.7031511 L27.3725,11.7031511 L27.3725,23.3110528 C27.3725,25.9655049 26.8775,27.381714 25.4275,28.5973979 C23.9775,29.8130819 21.955,30.457269 19.5775,30.457269 C17.065,30.457269 14.92,29.7579375 13.5425,28.4871091 C12.3025,27.3616615 11.7025,25.6672237 11.7025,23.3110528 L11.7025,23.3110528 L11.7025,11.698138 L15.775,11.698138 Z M98.015,11.698138 L98.015,22.9776796 C98.015,25.4692051 99.57,27.208761 101.82,27.208761 C104.115,27.208761 105.54,25.7123418 105.54,23.3110528 L105.54,23.3110528 L105.54,11.7031511 L109.6125,11.7031511 L109.6125,23.3110528 C109.6125,25.9655049 109.1175,27.381714 107.6675,28.5973979 C106.2175,29.8130819 104.1975,30.457269 101.82,30.457269 C99.3075,30.457269 97.1625,29.7579375 95.7825,28.4871091 C94.545,27.3591549 93.9425,25.6647171 93.9425,23.3110528 L93.9425,23.3110528 L93.9425,11.698138 L98.015,11.698138 Z M121.105,10.9685506 C122.614115,10.9592798 124.101667,11.3280516 125.4325,12.0415374 C127.6725,13.2497016 129.2975,15.3376701 130.1325,18.0773454 L130.1325,18.0773454 L130.25,18.5260205 L115.72,22.9776796 L116.0425,23.6168537 C117.38,26.2788255 120.045,27.4443781 122.8325,26.5946527 C124.658644,26.0357696 126.088991,24.604485 126.65,22.7746479 L126.65,22.7746479 L130.4975,22.7646216 C130.240195,23.864476 129.808001,24.9156372 129.2175,25.8777751 C127.97853,27.847416 126.062832,29.2937584 123.8325,29.9434233 C121.1825,30.7555503 118.49,30.5575316 116.255,29.3894724 C114.02,28.2214132 112.3675,26.1760563 111.5525,23.5316305 C110.7375,20.8872046 110.92,18.2402721 112.0525,16.069587 C113.185,13.8989019 115.24,12.2671282 117.84,11.4700406 C118.897331,11.1407184 119.99783,10.9717462 121.105,10.9685506 Z M65.75,10.9687276 C67.264097,10.9575129 68.7569295,11.3263155 70.0925,12.0415374 C72.33,13.2497016 73.955,15.3376701 74.7925,18.0773454 L74.7925,18.0773454 L74.9075,18.5260205 L60.3875,22.9776796 L60.71,23.6168537 C62.05,26.2788255 64.7175,27.4443781 67.5,26.5946527 C69.3344943,26.0363194 70.7766281,24.6072771 71.355,22.7746479 L71.355,22.7746479 L75.155,22.7646216 C74.3025,26.3414896 71.9425,28.8856529 68.4875,29.9434233 C65.8375,30.7555503 63.145,30.5575316 60.91,29.3894724 C58.675,28.2214132 57.0225,26.1760563 56.21,23.5316305 C55.3975,20.8872046 55.5775,18.2402721 56.71,16.069587 C57.8425,13.8989019 59.9,12.2671282 62.5,11.4700406 C63.5524768,11.1419781 64.6478425,10.9730178 65.75,10.9687276 Z M84.5,10.9988064 C87.015,10.9988064 89.16,11.6956314 90.54,12.9664598 C91.7775,14.0969205 92.38,15.7888518 92.38,18.1450227 L92.38,18.1450227 L92.38,29.7579375 L88.305,29.7579375 L88.305,18.4783958 C88.305,15.9868704 86.75,14.2473144 84.5,14.2473144 C82.2075,14.2473144 80.7825,15.741227 80.7825,18.1450227 L80.7825,18.1450227 L80.7825,29.7529243 L76.7075,29.7529243 L76.7075,18.1450227 C76.7075,15.488064 77.2075,14.0718549 78.655,12.8561709 C80.1025,11.640487 82.125,10.9988064 84.5,10.9988064 Z M43.24,11.7031511 L47.905,25.1809501 L52.62,11.7031511 L56.7325,11.7031511 L50.1475,29.7504178 L45.5475,29.7504178 L39.0425,11.7031511 L43.24,11.7031511 Z M35.315,11.7031511 L37.38,11.7106708 L38.5575,14.9692051 L36.21,14.9692051 C34.4890276,14.9746299 33.0925518,16.3669507 33.0775,18.0923848 L33.0775,18.0923848 L33.0125,29.7504178 L28.935,29.7504178 L28.935,18.0999045 C28.9391328,14.568793 31.7931366,11.7072948 35.315,11.7031511 L35.315,11.7031511 Z M125.405,17.2526856 C124.065,14.7210551 121.625,13.708403 118.8575,14.560635 C116.1625,15.3878014 114.7925,17.5359274 115.09,20.4560754 L115.09,20.4560754 Z M70.0625,17.2526856 C68.7225,14.7235617 66.2825,13.7134161 63.5175,14.560635 C60.82,15.3878014 59.45,17.5359274 59.75,20.4560754 L59.75,20.4560754 Z" id="Combined-Shape" fill="#FFFFFF"></path>
                </g>
            </g>
        </g>
    </g>
</svg>