<svg width="37" height="26" viewBox="0 0 37 26" fill="none" xmlns="http://www.w3.org/2000/svg">
<path d="M23.5768 4.61154e-06C20.9193 -0.00216097 18.3207 0.758434 16.1099 2.18558C13.8992 3.61272 12.1755 5.64228 11.1569 8.01753C10.1383 10.3928 9.87069 13.007 10.3878 15.5295C10.9049 18.0519 12.1835 20.3693 14.0619 22.1885C15.9403 24.0077 18.3341 25.2469 20.9404 25.7494C23.5467 26.2519 26.2486 25.9951 28.704 25.0115C31.1595 24.0279 33.2584 22.3616 34.7351 20.2236C36.2118 18.0855 37 15.5716 37 13C37.0007 11.2935 36.6541 9.60364 35.9799 8.0268C35.3058 6.44995 34.3172 5.01704 33.0708 3.80988C31.8243 2.60272 30.3444 1.64495 28.7154 0.991248C27.0864 0.337548 25.3403 0.000723275 23.5768 4.61154e-06ZM23.5768 16.2486C22.9127 16.2492 22.2633 16.0591 21.7109 15.7025C21.1584 15.3458 20.7277 14.8387 20.4732 14.2451C20.2186 13.6515 20.1517 12.9983 20.2809 12.3679C20.4102 11.7376 20.7297 11.1584 21.1991 10.7038C21.6685 10.2492 22.2667 9.93956 22.918 9.81399C23.5693 9.68842 24.2445 9.7526 24.8581 9.9984C25.4717 10.2442 25.9962 10.6606 26.3652 11.1949C26.7342 11.7292 26.9312 12.3574 26.9312 13C26.9312 13.4266 26.8444 13.8491 26.6756 14.2432C26.5069 14.6373 26.2596 14.9955 25.9479 15.2971C25.6361 15.5988 25.2661 15.8381 24.8587 16.0013C24.4514 16.1646 24.0149 16.2486 23.574 16.2486H23.5768ZM0 13C0 12.3575 0.196897 11.7294 0.565792 11.1952C0.934686 10.6609 1.45901 10.2445 2.07246 9.99866C2.68591 9.75278 3.36093 9.68844 4.01217 9.81379C4.6634 9.93914 5.2616 10.2485 5.73111 10.7029C6.20063 11.1572 6.52037 11.7361 6.64991 12.3662C6.77945 12.9964 6.71296 13.6496 6.45886 14.2432C6.20476 14.8368 5.77446 15.3442 5.22237 15.7011C4.67028 16.0581 4.0212 16.2486 3.35721 16.2486C2.46682 16.2486 1.6129 15.9064 0.983303 15.2971C0.353705 14.6879 0 13.8616 0 13Z" fill="#DA3743"/>
</svg>
